<svg width="1186" height="2" viewBox="0 0 1186 2" fill="none" xmlns="http://www.w3.org/2000/svg">
<rect width="1.01462" height="1.01462" transform="matrix(0 1 1 0 952.638 0.492676)" fill="white"/>
<rect width="1.01462" height="1.01462" transform="matrix(0 1 1 0 483.016 0.492676)" fill="white"/>
<rect width="1.01462" height="1.01462" transform="matrix(0 1 1 0 600.422 0.492676)" fill="white"/>
<rect width="1.01462" height="1.01462" transform="matrix(0 1 1 0 835.233 0.492676)" fill="white"/>
<rect width="1.01462" height="1.01462" transform="matrix(0 1 1 0 365.611 0.492676)" fill="white"/>
<rect width="1.01462" height="1.01462" transform="matrix(0 1 1 0 717.827 0.492676)" fill="white"/>
<rect width="1.01462" height="1.01462" transform="matrix(0 1 1 0 248.206 0.492676)" fill="white"/>
<line opacity="0.1" x1="1186" y1="0.742676" x2="0.349854" y2="0.742624" stroke="white" stroke-width="0.5"/>
</svg>
