<svg width="32" height="32" viewBox="0 0 32 32" fill="none" xmlns="http://www.w3.org/2000/svg">
<circle opacity="0.1" cx="16" cy="16" r="16" fill="white"/>
<path d="M18.2366 16L20.9199 13.3166C21.2583 12.9783 21.2583 12.4183 20.9199 12.08C20.5816 11.7416 20.0216 11.7416 19.6833 12.08L16.9999 14.7633L14.3166 12.08C13.9783 11.7416 13.4183 11.7416 13.0799 12.08C12.7416 12.4183 12.7416 12.9783 13.0799 13.3166L15.7633 16L13.0799 18.6833C12.7416 19.0216 12.7416 19.5816 13.0799 19.92C13.2549 20.095 13.4766 20.1766 13.6983 20.1766C13.9199 20.1766 14.1416 20.095 14.3166 19.92L16.9999 17.2366L19.6833 19.92C19.8583 20.095 20.0799 20.1766 20.3016 20.1766C20.5233 20.1766 20.7449 20.095 20.9199 19.92C21.2583 19.5816 21.2583 19.0216 20.9199 18.6833L18.2366 16Z" fill="white"/>
</svg>
