<svg width="60" height="60" viewBox="0 0 60 60" fill="none" xmlns="http://www.w3.org/2000/svg">
<circle cx="30" cy="30" r="30" fill="url(#paint0_linear_2045_99)"/>
<path opacity="0.1" d="M36.9835 13.3333H23.0168C16.9502 13.3333 13.3335 16.95 13.3335 23.0167V36.9667C13.3335 43.05 16.9502 46.6667 23.0168 46.6667H36.9668C43.0335 46.6667 46.6502 43.05 46.6502 36.9834V23.0167C46.6668 16.95 43.0502 13.3333 36.9835 13.3333Z" fill="white"/>
<path d="M25.9998 36.3C25.6832 36.3 25.3665 36.1833 25.1165 35.9333L20.9665 31.7833C19.9832 30.8 19.9832 29.2167 20.9665 28.2333L25.1165 24.0833C25.5998 23.6 26.3998 23.6 26.8832 24.0833C27.3665 24.5667 27.3665 25.3667 26.8832 25.85L22.7332 30L26.8832 34.1667C27.3665 34.65 27.3665 35.45 26.8832 35.9333C26.6332 36.1667 26.3165 36.3 25.9998 36.3Z" fill="white"/>
<path d="M34.0002 36.3C33.6836 36.3 33.3669 36.1833 33.1169 35.9333C32.6336 35.45 32.6336 34.65 33.1169 34.1667L37.2669 30L33.1169 25.8333C32.6336 25.35 32.6336 24.55 33.1169 24.0667C33.6002 23.5833 34.4002 23.5833 34.8836 24.0667L39.0336 28.2167C40.0169 29.2 40.0169 30.7833 39.0336 31.7667L34.8836 35.9167C34.6502 36.1667 34.3169 36.3 34.0002 36.3Z" fill="white"/>
<defs>
<linearGradient id="paint0_linear_2045_99" x1="30" y1="0" x2="30" y2="60" gradientUnits="userSpaceOnUse">
<stop stop-color="#08502E"/>
<stop offset="1" stop-color="#12B669"/>
</linearGradient>
</defs>
</svg>
