<svg width="1440" height="779" viewBox="0 0 1440 779" fill="none" xmlns="http://www.w3.org/2000/svg">
<g clip-path="url(#clip0_102_715)">
<rect width="1440" height="779" fill="#131313"/>
<line opacity="0.1" x1="50.25" y1="1.09278e-08" x2="50.25" y2="818" stroke="white" stroke-width="0.5"/>
<line opacity="0.1" y1="160.75" x2="1062" y2="160.75" stroke="white" stroke-width="0.5"/>
<rect width="0.525989" height="0.7" transform="matrix(1 0 0 -1 37.5 161)" fill="white"/>
<line opacity="0.1" y1="484.75" x2="1062" y2="484.75" stroke="white" stroke-width="0.5"/>
<rect width="0.525989" height="0.7" transform="matrix(1 0 0 -1 37.5 485)" fill="white"/>
<line opacity="0.1" y1="79.75" x2="1062" y2="79.75" stroke="white" stroke-width="0.5"/>
<rect width="0.525989" height="0.7" transform="matrix(1 0 0 -1 37.5 80)" fill="white"/>
<rect width="0.525989" height="0.7" transform="matrix(1 0 0 -1 157.5 80.0002)" fill="white"/>
<rect width="0.525989" height="0.7" transform="matrix(1 0 0 -1 218.25 80.0002)" fill="white"/>
<rect width="0.525989" height="0.7" transform="matrix(1 0 0 -1 279 80.0002)" fill="white"/>
<rect width="0.525989" height="0.7" transform="matrix(1 0 0 -1 339.75 80.0002)" fill="white"/>
<rect width="0.525989" height="0.7" transform="matrix(1 0 0 -1 400.5 80.0002)" fill="white"/>
<rect width="0.525989" height="0.7" transform="matrix(1 0 0 -1 461.25 80.0002)" fill="white"/>
<rect width="0.525989" height="0.7" transform="matrix(1 0 0 -1 522 80.0002)" fill="white"/>
<rect width="0.525989" height="0.7" transform="matrix(1 0 0 -1 582.75 80.0002)" fill="white"/>
<rect width="0.525989" height="0.7" transform="matrix(1 0 0 -1 643.5 80.0002)" fill="white"/>
<rect width="0.525989" height="0.7" transform="matrix(1 0 0 -1 704.25 80.0002)" fill="white"/>
<line opacity="0.1" y1="403.75" x2="1062" y2="403.75" stroke="white" stroke-width="0.5"/>
<rect width="0.525989" height="0.7" transform="matrix(1 0 0 -1 37.5 404)" fill="white"/>
<line opacity="0.1" y1="241.75" x2="1062" y2="241.75" stroke="white" stroke-width="0.5"/>
<rect width="0.525989" height="0.7" transform="matrix(1 0 0 -1 37.5 242)" fill="white"/>
<line opacity="0.1" y1="565.75" x2="1062" y2="565.75" stroke="white" stroke-width="0.5"/>
<rect width="0.525989" height="0.7" transform="matrix(1 0 0 -1 37.5 566)" fill="white"/>
<line opacity="0.1" y1="322.75" x2="1062" y2="322.75" stroke="white" stroke-width="0.5"/>
<rect width="0.525989" height="0.7" transform="matrix(1 0 0 -1 37.5 323)" fill="white"/>
<line opacity="0.1" y1="646.75" x2="1062" y2="646.75" stroke="white" stroke-width="0.5"/>
<rect width="0.525989" height="0.7" transform="matrix(1 0 0 -1 37.5 647)" fill="white"/>
<rect width="0.525989" height="0.7" transform="matrix(1 0 0 -1 97.5 161)" fill="white"/>
<rect width="0.525989" height="0.7" transform="matrix(1 0 0 -1 97.5 485)" fill="white"/>
<rect width="0.525989" height="0.7" transform="matrix(1 0 0 -1 97.5 80.0002)" fill="white"/>
<rect width="0.525989" height="0.7" transform="matrix(1 0 0 -1 97.5 404)" fill="white"/>
<rect width="0.525989" height="0.7" transform="matrix(1 0 0 -1 97.5 242)" fill="white"/>
<rect width="0.525989" height="0.7" transform="matrix(1 0 0 -1 97.5 566)" fill="white"/>
<rect width="0.525989" height="0.7" transform="matrix(1 0 0 -1 97.5 323)" fill="white"/>
<rect width="0.525989" height="0.7" transform="matrix(1 0 0 -1 97.5 647)" fill="white"/>
<rect width="0.5" height="0.5" transform="matrix(1 0 0 -1 50 202)" fill="#626262"/>
<rect width="0.5" height="0.5" transform="matrix(1 0 0 -1 50 526)" fill="#626262"/>
<rect width="0.5" height="0.5" transform="matrix(1 0 0 -1 50 253)" fill="#626262"/>
<rect width="0.5" height="0.5" transform="matrix(1 0 0 -1 50 577)" fill="#626262"/>
<line opacity="0.1" x1="130.25" y1="1.09278e-08" x2="130.25" y2="818" stroke="white" stroke-width="0.5"/>
<rect width="0.7" height="0.7" transform="matrix(1 0 0 -1 210 161)" fill="white"/>
<rect width="0.7" height="0.7" transform="matrix(1 0 0 -1 210 485)" fill="white"/>
<rect width="0.7" height="0.7" transform="matrix(1 0 0 -1 210 404)" fill="white"/>
<rect width="0.7" height="0.7" transform="matrix(1 0 0 -1 210 242)" fill="white"/>
<rect width="0.7" height="0.7" transform="matrix(1 0 0 -1 210 566)" fill="white"/>
<rect width="0.7" height="0.7" transform="matrix(1 0 0 -1 210 323)" fill="white"/>
<rect width="0.7" height="0.7" transform="matrix(1 0 0 -1 210 647)" fill="white"/>
<line opacity="0.1" x1="210.25" y1="1.09278e-08" x2="210.25" y2="818" stroke="white" stroke-width="0.5"/>
<rect width="0.7" height="0.7" transform="matrix(1 0 0 -1 291 161)" fill="white"/>
<rect width="0.7" height="0.7" transform="matrix(1 0 0 -1 291 485)" fill="white"/>
<rect width="0.7" height="0.7" transform="matrix(1 0 0 -1 291 404)" fill="white"/>
<rect width="0.7" height="0.7" transform="matrix(1 0 0 -1 291 242)" fill="white"/>
<rect width="0.7" height="0.7" transform="matrix(1 0 0 -1 291 566)" fill="white"/>
<rect width="0.7" height="0.7" transform="matrix(1 0 0 -1 291 323)" fill="white"/>
<rect width="0.7" height="0.7" transform="matrix(1 0 0 -1 291 647)" fill="white"/>
<line opacity="0.1" x1="291.25" y1="1.09278e-08" x2="291.25" y2="818" stroke="white" stroke-width="0.5"/>
<rect width="0.7" height="0.7" transform="matrix(1 0 0 -1 372 161)" fill="white"/>
<rect width="0.7" height="0.7" transform="matrix(1 0 0 -1 372 485)" fill="white"/>
<rect width="0.7" height="0.7" transform="matrix(1 0 0 -1 372 404)" fill="white"/>
<rect width="0.7" height="0.7" transform="matrix(1 0 0 -1 372 242)" fill="white"/>
<rect width="0.7" height="0.7" transform="matrix(1 0 0 -1 372 566)" fill="white"/>
<rect width="0.7" height="0.7" transform="matrix(1 0 0 -1 372 323)" fill="white"/>
<rect width="0.7" height="0.7" transform="matrix(1 0 0 -1 372 647)" fill="white"/>
<line opacity="0.1" x1="372.25" y1="1.09278e-08" x2="372.25" y2="818" stroke="white" stroke-width="0.5"/>
<rect width="0.7" height="0.7" transform="matrix(1 0 0 -1 453 161)" fill="white"/>
<rect width="0.7" height="0.7" transform="matrix(1 0 0 -1 453 485)" fill="white"/>
<rect width="0.7" height="0.7" transform="matrix(1 0 0 -1 453 404)" fill="white"/>
<rect width="0.7" height="0.7" transform="matrix(1 0 0 -1 453 242)" fill="white"/>
<rect width="0.7" height="0.7" transform="matrix(1 0 0 -1 453 566)" fill="white"/>
<rect width="0.7" height="0.7" transform="matrix(1 0 0 -1 453 323)" fill="white"/>
<rect width="0.7" height="0.7" transform="matrix(1 0 0 -1 453 647)" fill="white"/>
<line opacity="0.1" x1="453.25" y1="1.09278e-08" x2="453.25" y2="818" stroke="white" stroke-width="0.5"/>
<rect width="0.7" height="0.7" transform="matrix(1 0 0 -1 534 161)" fill="white"/>
<rect width="0.7" height="0.7" transform="matrix(1 0 0 -1 534 485)" fill="white"/>
<rect width="0.7" height="0.7" transform="matrix(1 0 0 -1 534 404)" fill="white"/>
<rect width="0.7" height="0.7" transform="matrix(1 0 0 -1 534 242)" fill="white"/>
<rect width="0.7" height="0.7" transform="matrix(1 0 0 -1 534 566)" fill="white"/>
<rect width="0.7" height="0.7" transform="matrix(1 0 0 -1 534 323)" fill="white"/>
<rect width="0.7" height="0.7" transform="matrix(1 0 0 -1 534 647)" fill="white"/>
<line opacity="0.1" x1="534.25" y1="1.09278e-08" x2="534.25" y2="818" stroke="white" stroke-width="0.5"/>
<rect width="0.7" height="0.7" transform="matrix(1 0 0 -1 615 161)" fill="white"/>
<rect width="0.7" height="0.7" transform="matrix(1 0 0 -1 615 485)" fill="white"/>
<rect width="0.7" height="0.7" transform="matrix(1 0 0 -1 615 404)" fill="white"/>
<rect width="0.7" height="0.7" transform="matrix(1 0 0 -1 615 242)" fill="white"/>
<rect width="0.7" height="0.7" transform="matrix(1 0 0 -1 615 566)" fill="white"/>
<rect width="0.7" height="0.7" transform="matrix(1 0 0 -1 615 323)" fill="white"/>
<rect width="0.7" height="0.7" transform="matrix(1 0 0 -1 615 647)" fill="white"/>
<line opacity="0.1" x1="615.25" y1="1.09278e-08" x2="615.25" y2="818" stroke="white" stroke-width="0.5"/>
<rect width="0.7" height="0.7" transform="matrix(1 0 0 -1 696 161)" fill="white"/>
<rect width="0.7" height="0.7" transform="matrix(1 0 0 -1 696 485)" fill="white"/>
<rect width="0.7" height="0.7" transform="matrix(1 0 0 -1 696 404)" fill="white"/>
<rect width="0.7" height="0.7" transform="matrix(1 0 0 -1 696 242)" fill="white"/>
<rect width="0.7" height="0.7" transform="matrix(1 0 0 -1 696 566)" fill="white"/>
<rect width="0.7" height="0.7" transform="matrix(1 0 0 -1 696 323)" fill="white"/>
<rect width="0.7" height="0.7" transform="matrix(1 0 0 -1 696 647)" fill="white"/>
<line opacity="0.1" x1="696.25" y1="1.09278e-08" x2="696.25" y2="818" stroke="white" stroke-width="0.5"/>
<rect width="0.7" height="0.7" transform="matrix(1 0 0 -1 777 161)" fill="white"/>
<rect width="0.7" height="0.7" transform="matrix(1 0 0 -1 777 485)" fill="white"/>
<rect width="0.7" height="0.7" transform="matrix(1 0 0 -1 777 404)" fill="white"/>
<rect width="0.7" height="0.7" transform="matrix(1 0 0 -1 777 242)" fill="white"/>
<rect width="0.7" height="0.7" transform="matrix(1 0 0 -1 777 566)" fill="white"/>
<rect width="0.7" height="0.7" transform="matrix(1 0 0 -1 777 323)" fill="white"/>
<rect width="0.7" height="0.7" transform="matrix(1 0 0 -1 777 647)" fill="white"/>
<line opacity="0.1" x1="777.25" y1="1.09278e-08" x2="777.25" y2="818" stroke="white" stroke-width="0.5"/>
<rect width="0.7" height="0.7" transform="matrix(1 0 0 -1 858 161)" fill="white"/>
<rect width="0.7" height="0.7" transform="matrix(1 0 0 -1 858 485)" fill="white"/>
<rect width="0.7" height="0.7" transform="matrix(1 0 0 -1 858 404)" fill="white"/>
<rect width="0.7" height="0.7" transform="matrix(1 0 0 -1 858 242)" fill="white"/>
<rect width="0.7" height="0.7" transform="matrix(1 0 0 -1 858 566)" fill="white"/>
<rect width="0.7" height="0.7" transform="matrix(1 0 0 -1 858 323)" fill="white"/>
<rect width="0.7" height="0.7" transform="matrix(1 0 0 -1 858 647)" fill="white"/>
<line opacity="0.1" x1="858.25" y1="1.09278e-08" x2="858.25" y2="818" stroke="white" stroke-width="0.5"/>
<rect width="0.7" height="0.7" transform="matrix(1 0 0 -1 939 161)" fill="white"/>
<rect width="0.7" height="0.7" transform="matrix(1 0 0 -1 939 485)" fill="white"/>
<rect width="0.7" height="0.7" transform="matrix(1 0 0 -1 939 404)" fill="white"/>
<rect width="0.7" height="0.7" transform="matrix(1 0 0 -1 939 242)" fill="white"/>
<rect width="0.7" height="0.7" transform="matrix(1 0 0 -1 939 566)" fill="white"/>
<rect width="0.7" height="0.7" transform="matrix(1 0 0 -1 939 323)" fill="white"/>
<rect width="0.7" height="0.7" transform="matrix(1 0 0 -1 939 647)" fill="white"/>
<line opacity="0.1" x1="939.25" y1="1.09278e-08" x2="939.25" y2="818" stroke="white" stroke-width="0.5"/>
<rect width="0.5" height="0.5" transform="matrix(1 0 0 -1 130 261)" fill="#626262"/>
<rect width="0.5" height="0.5" transform="matrix(1 0 0 -1 240 261)" fill="#626262"/>
<rect width="0.5" height="0.5" transform="matrix(1 0 0 -1 130 585)" fill="#626262"/>
<rect width="0.5" height="0.5" transform="matrix(1 0 0 -1 240 585)" fill="#626262"/>
<g filter="url(#filter0_f_102_715)">
<circle cx="611.5" cy="110.5" r="258.5" fill="#008D53"/>
</g>
<g filter="url(#filter1_f_102_715)">
<circle cx="1101.5" cy="360.5" r="258.5" fill="black"/>
</g>
<g filter="url(#filter2_f_102_715)">
<ellipse cx="335.5" cy="187" rx="292.5" ry="282" fill="black"/>
</g>
<path d="M1030.9 309.684C1030.15 309.274 1029.5 308.667 1029.12 307.967L1025.74 301.622C1025.12 300.443 1025.12 299.042 1025.77 297.868C1026.41 296.694 1027.59 295.939 1028.93 295.839L1036.1 295.311C1037.69 295.195 1039.52 296.202 1040.26 297.614L1043.62 303.945C1044.24 305.12 1044.23 306.52 1043.59 307.686C1042.95 308.851 1041.77 309.606 1040.45 309.71L1033.3 310.266C1032.51 310.329 1031.65 310.098 1030.9 309.684ZM1037.77 297.198C1037.27 296.924 1036.7 296.763 1036.21 296.811L1029.05 297.343C1028.21 297.409 1027.49 297.86 1027.09 298.596C1026.69 299.332 1026.68 300.173 1027.08 300.918L1030.46 307.263C1030.93 308.136 1032.21 308.84 1033.19 308.767L1040.34 308.211C1041.17 308.145 1041.88 307.69 1042.28 306.954C1042.69 306.218 1042.69 305.377 1042.3 304.636L1038.95 298.306C1038.71 297.875 1038.27 297.478 1037.77 297.198Z" fill="#292D32"/>
<path d="M1028.12 314.717C1027.73 314.505 1027.37 314.235 1027.11 313.957L1024.82 311.49C1023.74 310.324 1023.49 308.305 1024.27 306.917L1026.54 302.812C1026.74 302.453 1027.2 302.319 1027.56 302.517C1027.92 302.714 1028.05 303.176 1027.85 303.536L1025.58 307.64C1025.13 308.463 1025.29 309.786 1025.93 310.478L1028.21 312.944C1028.5 313.251 1029.15 313.607 1029.56 313.686L1032.87 314.295C1033.79 314.461 1035 313.891 1035.45 313.076L1037.68 309.011C1037.88 308.651 1038.34 308.517 1038.7 308.715C1039.06 308.913 1039.19 309.374 1039 309.734L1036.76 313.799C1035.99 315.192 1034.17 316.06 1032.6 315.779L1029.29 315.17C1028.93 315.093 1028.5 314.929 1028.12 314.717Z" fill="#292D32"/>
<path d="M1039.73 313.115C1039.37 312.917 1039.23 312.455 1039.43 312.096L1042.32 306.839C1042.52 306.48 1042.98 306.346 1043.34 306.543C1043.7 306.741 1043.83 307.203 1043.64 307.562L1040.75 312.819C1040.55 313.178 1040.09 313.312 1039.73 313.115Z" fill="#292D32"/>
<path d="M374.897 448.684C374.152 448.274 373.505 447.667 373.125 446.967L369.745 440.622C369.115 439.443 369.121 438.042 369.767 436.868C370.413 435.694 371.593 434.939 372.926 434.839L380.099 434.311C381.692 434.195 383.523 435.202 384.264 436.614L387.618 442.945C388.239 444.12 388.233 445.52 387.592 446.686C386.951 447.851 385.771 448.606 384.447 448.71L377.304 449.266C376.505 449.329 375.65 449.098 374.897 448.684ZM381.766 436.198C381.266 435.924 380.704 435.763 380.21 435.811L373.046 436.343C372.211 436.409 371.495 436.86 371.09 437.596C370.685 438.332 370.679 439.173 371.079 439.918L374.46 446.263C374.926 447.136 376.206 447.84 377.193 447.767L384.336 447.211C385.171 447.145 385.878 446.69 386.283 445.954C386.688 445.218 386.694 444.377 386.302 443.636L382.948 437.306C382.706 436.875 382.274 436.478 381.766 436.198Z" fill="#292D32"/>
<path d="M372.117 453.717C371.731 453.505 371.366 453.235 371.108 452.957L368.824 450.49C367.742 449.324 367.495 447.305 368.27 445.917L370.539 441.812C370.737 441.453 371.199 441.319 371.558 441.517C371.917 441.714 372.051 442.176 371.854 442.536L369.584 446.64C369.131 447.463 369.294 448.786 369.929 449.478L372.213 451.944C372.501 452.251 373.149 452.607 373.563 452.686L376.868 453.295C377.793 453.461 378.997 452.891 379.445 452.076L381.682 448.011C381.879 447.651 382.341 447.517 382.7 447.715C383.059 447.913 383.193 448.374 382.996 448.734L380.759 452.799C379.993 454.192 378.169 455.06 376.6 454.779L373.294 454.17C372.925 454.093 372.502 453.929 372.117 453.717Z" fill="#292D32"/>
<path d="M383.727 452.115C383.367 451.917 383.233 451.455 383.431 451.096L386.323 445.839C386.521 445.48 386.982 445.346 387.342 445.543C387.701 445.741 387.835 446.203 387.637 446.562L384.745 451.819C384.548 452.178 384.086 452.312 383.727 452.115Z" fill="#292D32"/>
<g opacity="0.2">
<path d="M437 659.3C436.683 659.3 436.367 659.183 436.117 658.933L431.967 654.783C430.983 653.8 430.983 652.217 431.967 651.233L436.117 647.083C436.6 646.6 437.4 646.6 437.883 647.083C438.367 647.567 438.367 648.367 437.883 648.85L433.733 653L437.883 657.167C438.367 657.65 438.367 658.45 437.883 658.933C437.633 659.167 437.317 659.3 437 659.3Z" fill="white"/>
<path d="M445 659.3C444.684 659.3 444.367 659.183 444.117 658.933C443.634 658.45 443.634 657.65 444.117 657.167L448.267 653L444.117 648.833C443.634 648.35 443.634 647.55 444.117 647.067C444.6 646.583 445.4 646.583 445.884 647.067L450.034 651.217C451.017 652.2 451.017 653.783 450.034 654.767L445.884 658.917C445.65 659.167 445.317 659.3 445 659.3Z" fill="white"/>
</g>
<g opacity="0.2">
<path d="M1041 475.3C1040.68 475.3 1040.37 475.183 1040.12 474.933L1035.97 470.783C1034.98 469.8 1034.98 468.217 1035.97 467.233L1040.12 463.083C1040.6 462.6 1041.4 462.6 1041.88 463.083C1042.37 463.567 1042.37 464.367 1041.88 464.85L1037.73 469L1041.88 473.167C1042.37 473.65 1042.37 474.45 1041.88 474.933C1041.63 475.167 1041.32 475.3 1041 475.3Z" fill="white"/>
<path d="M1049 475.3C1048.68 475.3 1048.37 475.183 1048.12 474.933C1047.63 474.45 1047.63 473.65 1048.12 473.167L1052.27 469L1048.12 464.833C1047.63 464.35 1047.63 463.55 1048.12 463.067C1048.6 462.583 1049.4 462.583 1049.88 463.067L1054.03 467.217C1055.02 468.2 1055.02 469.783 1054.03 470.767L1049.88 474.917C1049.65 475.167 1049.32 475.3 1049 475.3Z" fill="white"/>
</g>
</g>
<defs>
<filter id="filter0_f_102_715" x="-171" y="-672" width="1565" height="1565" filterUnits="userSpaceOnUse" color-interpolation-filters="sRGB">
<feFlood flood-opacity="0" result="BackgroundImageFix"/>
<feBlend mode="normal" in="SourceGraphic" in2="BackgroundImageFix" result="shape"/>
<feGaussianBlur stdDeviation="262" result="effect1_foregroundBlur_102_715"/>
</filter>
<filter id="filter1_f_102_715" x="429" y="-312" width="1345" height="1345" filterUnits="userSpaceOnUse" color-interpolation-filters="sRGB">
<feFlood flood-opacity="0" result="BackgroundImageFix"/>
<feBlend mode="normal" in="SourceGraphic" in2="BackgroundImageFix" result="shape"/>
<feGaussianBlur stdDeviation="207" result="effect1_foregroundBlur_102_715"/>
</filter>
<filter id="filter2_f_102_715" x="-371" y="-509" width="1413" height="1392" filterUnits="userSpaceOnUse" color-interpolation-filters="sRGB">
<feFlood flood-opacity="0" result="BackgroundImageFix"/>
<feBlend mode="normal" in="SourceGraphic" in2="BackgroundImageFix" result="shape"/>
<feGaussianBlur stdDeviation="207" result="effect1_foregroundBlur_102_715"/>
</filter>
<clipPath id="clip0_102_715">
<rect width="1440" height="779" fill="white"/>
</clipPath>
</defs>
</svg>
