<svg width="20" height="20" viewBox="0 0 20 20" fill="none" xmlns="http://www.w3.org/2000/svg">
<path d="M13.3083 18.9585H6.64168C3.79168 18.9585 2.68335 17.8502 2.68335 15.0002V8.3335C2.68335 7.99183 2.96668 7.7085 3.30835 7.7085H16.6417C16.9833 7.7085 17.2667 7.99183 17.2667 8.3335V15.0002C17.2667 17.8502 16.1583 18.9585 13.3083 18.9585ZM3.93335 8.9585V15.0002C3.93335 17.1502 4.49168 17.7085 6.64168 17.7085H13.3083C15.4583 17.7085 16.0167 17.1502 16.0167 15.0002V8.9585H3.93335Z" fill="#12B669"/>
<path d="M16.2499 8.95817H3.74992C2.29159 8.95817 1.45825 8.12484 1.45825 6.6665V5.83317C1.45825 4.37484 2.29159 3.5415 3.74992 3.5415H16.2499C17.6666 3.5415 18.5416 4.4165 18.5416 5.83317V6.6665C18.5416 8.08317 17.6666 8.95817 16.2499 8.95817ZM3.74992 4.7915C2.99159 4.7915 2.70825 5.07484 2.70825 5.83317V6.6665C2.70825 7.42484 2.99159 7.70817 3.74992 7.70817H16.2499C16.9833 7.70817 17.2916 7.39984 17.2916 6.6665V5.83317C17.2916 5.09984 16.9833 4.7915 16.2499 4.7915H3.74992Z" fill="#12B669"/>
<path d="M9.69992 4.79173H5.09992C4.92492 4.79173 4.75825 4.71673 4.64158 4.59173C4.13325 4.0334 4.14992 3.17507 4.68325 2.64173L5.86658 1.4584C6.41658 0.908398 7.32492 0.908398 7.87492 1.4584L10.1416 3.72506C10.3166 3.90006 10.3749 4.17506 10.2749 4.4084C10.1832 4.64173 9.95825 4.79173 9.69992 4.79173ZM5.55825 3.54173H8.19992L6.99158 2.34173C6.92492 2.27507 6.81658 2.27507 6.74992 2.34173L5.56658 3.52507C5.56658 3.5334 5.55825 3.5334 5.55825 3.54173Z" fill="#12B669"/>
<path d="M14.8917 4.79173H10.2917C10.0417 4.79173 9.80841 4.64173 9.71674 4.4084C9.61674 4.17506 9.67507 3.9084 9.85007 3.72506L12.1167 1.4584C12.6667 0.908398 13.5751 0.908398 14.1251 1.4584L15.3084 2.64173C15.8417 3.17507 15.8667 4.0334 15.3501 4.59173C15.2334 4.71673 15.0667 4.79173 14.8917 4.79173ZM11.8084 3.54173H14.4501C14.4417 3.5334 14.4417 3.5334 14.4334 3.52507L13.2501 2.34173C13.1834 2.27507 13.0751 2.27507 13.0084 2.34173L11.8084 3.54173Z" fill="#12B669"/>
<path d="M8.28328 14.0835C8.04995 14.0835 7.80828 14.0252 7.59162 13.9085C7.11662 13.6502 6.82495 13.1585 6.82495 12.6252V8.3335C6.82495 7.99183 7.10828 7.7085 7.44995 7.7085H12.4833C12.825 7.7085 13.1083 7.99183 13.1083 8.3335V12.6085C13.1083 13.1502 12.8166 13.6418 12.3416 13.8918C11.8666 14.1502 11.2916 14.1168 10.8416 13.8168L10.1 13.3168C10.0333 13.2668 9.94162 13.2668 9.86662 13.3168L9.08328 13.8335C8.84162 14.0002 8.55828 14.0835 8.28328 14.0835ZM8.07495 8.9585V12.6168C8.07495 12.7252 8.14162 12.7752 8.18328 12.8002C8.22495 12.8252 8.30828 12.8502 8.39995 12.7918L9.18329 12.2752C9.67495 11.9502 10.3083 11.9502 10.7916 12.2752L11.5333 12.7752C11.625 12.8335 11.7083 12.8085 11.75 12.7835C11.7916 12.7585 11.8583 12.7085 11.8583 12.6002V8.95016H8.07495V8.9585Z" fill="#12B669"/>
</svg>
