<svg width="373" height="180" viewBox="0 0 373 180" fill="none" xmlns="http://www.w3.org/2000/svg">
<rect opacity="0.2" width="369.73" height="180" rx="10" fill="black"/>
<g filter="url(#filter0_d_2025_99)">
<path d="M28.1584 145.947C28.1584 145.947 78.6163 109.758 116.306 105.204C140.061 102.333 171.851 135.99 195.884 145.947C211.355 152.357 246.783 123.72 269.34 105.203C287.565 90.2428 348.305 113.108 348.305 113.108" stroke="#12B669" stroke-width="2"/>
</g>
<path d="M129.273 105.811C129.273 109.562 126.211 112.608 122.427 112.608C118.643 112.608 115.582 109.562 115.582 105.811C115.582 102.06 118.643 99.0134 122.427 99.0134C126.211 99.0134 129.273 102.06 129.273 105.811Z" fill="#191919" stroke="#12B669"/>
<path d="M250.476 124.054C250.476 127.133 247.962 129.635 244.855 129.635C241.747 129.635 239.233 127.133 239.233 124.054C239.233 120.975 241.747 118.473 244.855 118.473C247.962 118.473 250.476 120.975 250.476 124.054Z" fill="#191919" stroke="#12B669"/>
<ellipse cx="244.854" cy="124.054" rx="3.67281" ry="3.64865" fill="#12B669"/>
<rect opacity="0.2" x="24.736" y="19.7095" width="61.9378" height="18.9595" rx="7.75" stroke="white" stroke-width="0.5"/>
<path opacity="0.3" d="M47.5249 24.7258L45.2249 29.1558V31.6758H44.0849V29.1558L41.7749 24.7258H43.0449L44.6549 28.1358L46.2649 24.7258H47.5249ZM53.4796 28.7858C53.4796 28.9924 53.4662 29.1791 53.4396 29.3458H49.2296C49.2629 29.7858 49.4262 30.1391 49.7196 30.4058C50.0129 30.6724 50.3729 30.8058 50.7996 30.8058C51.4129 30.8058 51.8462 30.5491 52.0996 30.0358H53.3296C53.1629 30.5424 52.8596 30.9591 52.4196 31.2858C51.9862 31.6058 51.4462 31.7658 50.7996 31.7658C50.2729 31.7658 49.7996 31.6491 49.3796 31.4158C48.9662 31.1758 48.6396 30.8424 48.3996 30.4158C48.1662 29.9824 48.0496 29.4824 48.0496 28.9158C48.0496 28.3491 48.1629 27.8524 48.3896 27.4258C48.6229 26.9924 48.9462 26.6591 49.3596 26.4258C49.7796 26.1924 50.2596 26.0758 50.7996 26.0758C51.3196 26.0758 51.7829 26.1891 52.1896 26.4158C52.5962 26.6424 52.9129 26.9624 53.1396 27.3758C53.3662 27.7824 53.4796 28.2524 53.4796 28.7858ZM52.2896 28.4258C52.2829 28.0058 52.1329 27.6691 51.8396 27.4158C51.5462 27.1624 51.1829 27.0358 50.7496 27.0358C50.3562 27.0358 50.0196 27.1624 49.7396 27.4158C49.4596 27.6624 49.2929 27.9991 49.2396 28.4258H52.2896ZM54.2214 28.8958C54.2214 28.3424 54.3348 27.8524 54.5614 27.4258C54.7948 26.9991 55.1081 26.6691 55.5014 26.4358C55.9014 26.1958 56.3414 26.0758 56.8214 26.0758C57.2548 26.0758 57.6314 26.1624 57.9514 26.3358C58.2781 26.5024 58.5381 26.7124 58.7314 26.9658V26.1658H59.8814V31.6758H58.7314V30.8558C58.5381 31.1158 58.2748 31.3324 57.9414 31.5058C57.6081 31.6791 57.2281 31.7658 56.8014 31.7658C56.3281 31.7658 55.8948 31.6458 55.5014 31.4058C55.1081 31.1591 54.7948 30.8191 54.5614 30.3858C54.3348 29.9458 54.2214 29.4491 54.2214 28.8958ZM58.7314 28.9158C58.7314 28.5358 58.6514 28.2058 58.4914 27.9258C58.3381 27.6458 58.1348 27.4324 57.8814 27.2858C57.6281 27.1391 57.3548 27.0658 57.0614 27.0658C56.7681 27.0658 56.4948 27.1391 56.2414 27.2858C55.9881 27.4258 55.7814 27.6358 55.6214 27.9158C55.4681 28.1891 55.3914 28.5158 55.3914 28.8958C55.3914 29.2758 55.4681 29.6091 55.6214 29.8958C55.7814 30.1824 55.9881 30.4024 56.2414 30.5558C56.5014 30.7024 56.7748 30.7758 57.0614 30.7758C57.3548 30.7758 57.6281 30.7024 57.8814 30.5558C58.1348 30.4091 58.3381 30.1958 58.4914 29.9158C58.6514 29.6291 58.7314 29.2958 58.7314 28.9158ZM62.5188 26.9658C62.6855 26.6858 62.9055 26.4691 63.1788 26.3158C63.4588 26.1558 63.7888 26.0758 64.1688 26.0758V27.2558H63.8788C63.4321 27.2558 63.0921 27.3691 62.8588 27.5958C62.6321 27.8224 62.5188 28.2158 62.5188 28.7758V31.6758H61.3788V26.1658H62.5188V26.9658Z" fill="white"/>
<rect opacity="0.2" x="99.4158" y="19.7095" width="61.9378" height="18.9595" rx="7.75" stroke="white" stroke-width="0.5"/>
<path opacity="0.2" d="M119.478 24.7258V31.6758H118.338V26.9158L116.218 31.6758H115.428L113.298 26.9158V31.6758H112.158V24.7258H113.388L115.828 30.1758L118.258 24.7258H119.478ZM123.366 31.7658C122.846 31.7658 122.376 31.6491 121.956 31.4158C121.536 31.1758 121.206 30.8424 120.966 30.4158C120.726 29.9824 120.606 29.4824 120.606 28.9158C120.606 28.3558 120.73 27.8591 120.976 27.4258C121.223 26.9924 121.56 26.6591 121.986 26.4258C122.413 26.1924 122.89 26.0758 123.416 26.0758C123.943 26.0758 124.42 26.1924 124.846 26.4258C125.273 26.6591 125.61 26.9924 125.856 27.4258C126.103 27.8591 126.226 28.3558 126.226 28.9158C126.226 29.4758 126.1 29.9724 125.846 30.4058C125.593 30.8391 125.246 31.1758 124.806 31.4158C124.373 31.6491 123.893 31.7658 123.366 31.7658ZM123.366 30.7758C123.66 30.7758 123.933 30.7058 124.186 30.5658C124.446 30.4258 124.656 30.2158 124.816 29.9358C124.976 29.6558 125.056 29.3158 125.056 28.9158C125.056 28.5158 124.98 28.1791 124.826 27.9058C124.673 27.6258 124.47 27.4158 124.216 27.2758C123.963 27.1358 123.69 27.0658 123.396 27.0658C123.103 27.0658 122.83 27.1358 122.576 27.2758C122.33 27.4158 122.133 27.6258 121.986 27.9058C121.84 28.1791 121.766 28.5158 121.766 28.9158C121.766 29.5091 121.916 29.9691 122.216 30.2958C122.523 30.6158 122.906 30.7758 123.366 30.7758ZM130.133 26.0758C130.567 26.0758 130.953 26.1658 131.293 26.3458C131.64 26.5258 131.91 26.7924 132.103 27.1458C132.297 27.4991 132.393 27.9258 132.393 28.4258V31.6758H131.263V28.5958C131.263 28.1024 131.14 27.7258 130.893 27.4658C130.647 27.1991 130.31 27.0658 129.883 27.0658C129.457 27.0658 129.117 27.1991 128.863 27.4658C128.617 27.7258 128.493 28.1024 128.493 28.5958V31.6758H127.353V26.1658H128.493V26.7958C128.68 26.5691 128.917 26.3924 129.203 26.2658C129.497 26.1391 129.807 26.0758 130.133 26.0758ZM135.178 27.0958V30.1458C135.178 30.3524 135.224 30.5024 135.318 30.5958C135.418 30.6824 135.584 30.7258 135.818 30.7258H136.518V31.6758H135.618C135.104 31.6758 134.711 31.5558 134.438 31.3158C134.164 31.0758 134.028 30.6858 134.028 30.1458V27.0958H133.378V26.1658H134.028V24.7958H135.178V26.1658H136.518V27.0958H135.178ZM140.418 26.0758C140.838 26.0758 141.212 26.1658 141.538 26.3458C141.872 26.5258 142.132 26.7924 142.318 27.1458C142.512 27.4991 142.608 27.9258 142.608 28.4258V31.6758H141.478V28.5958C141.478 28.1024 141.355 27.7258 141.108 27.4658C140.862 27.1991 140.525 27.0658 140.098 27.0658C139.672 27.0658 139.332 27.1991 139.078 27.4658C138.832 27.7258 138.708 28.1024 138.708 28.5958V31.6758H137.568V24.2758H138.708V26.8058C138.902 26.5724 139.145 26.3924 139.438 26.2658C139.738 26.1391 140.065 26.0758 140.418 26.0758Z" fill="white"/>
<rect opacity="0.2" x="174.097" y="19.7095" width="61.9378" height="18.9595" rx="7.75" stroke="white" stroke-width="0.5"/>
<path opacity="0.2" d="M198.337 24.7258L196.277 31.6758H194.987L193.527 26.4158L191.977 31.6758L190.697 31.6858L188.727 24.7258H189.937L191.377 30.3858L192.937 24.7258H194.217L195.667 30.3558L197.117 24.7258H198.337ZM204.327 28.7858C204.327 28.9924 204.314 29.1791 204.287 29.3458H200.077C200.111 29.7858 200.274 30.1391 200.567 30.4058C200.861 30.6724 201.221 30.8058 201.647 30.8058C202.261 30.8058 202.694 30.5491 202.947 30.0358H204.177C204.011 30.5424 203.707 30.9591 203.267 31.2858C202.834 31.6058 202.294 31.7658 201.647 31.7658C201.121 31.7658 200.647 31.6491 200.227 31.4158C199.814 31.1758 199.487 30.8424 199.247 30.4158C199.014 29.9824 198.897 29.4824 198.897 28.9158C198.897 28.3491 199.011 27.8524 199.237 27.4258C199.471 26.9924 199.794 26.6591 200.207 26.4258C200.627 26.1924 201.107 26.0758 201.647 26.0758C202.167 26.0758 202.631 26.1891 203.037 26.4158C203.444 26.6424 203.761 26.9624 203.987 27.3758C204.214 27.7824 204.327 28.2524 204.327 28.7858ZM203.137 28.4258C203.131 28.0058 202.981 27.6691 202.687 27.4158C202.394 27.1624 202.031 27.0358 201.597 27.0358C201.204 27.0358 200.867 27.1624 200.587 27.4158C200.307 27.6624 200.141 27.9991 200.087 28.4258H203.137ZM210.499 28.7858C210.499 28.9924 210.486 29.1791 210.459 29.3458H206.249C206.283 29.7858 206.446 30.1391 206.739 30.4058C207.033 30.6724 207.393 30.8058 207.819 30.8058C208.433 30.8058 208.866 30.5491 209.119 30.0358H210.349C210.183 30.5424 209.879 30.9591 209.439 31.2858C209.006 31.6058 208.466 31.7658 207.819 31.7658C207.293 31.7658 206.819 31.6491 206.399 31.4158C205.986 31.1758 205.659 30.8424 205.419 30.4158C205.186 29.9824 205.069 29.4824 205.069 28.9158C205.069 28.3491 205.183 27.8524 205.409 27.4258C205.643 26.9924 205.966 26.6591 206.379 26.4258C206.799 26.1924 207.279 26.0758 207.819 26.0758C208.339 26.0758 208.803 26.1891 209.209 26.4158C209.616 26.6424 209.933 26.9624 210.159 27.3758C210.386 27.7824 210.499 28.2524 210.499 28.7858ZM209.309 28.4258C209.303 28.0058 209.153 27.6691 208.859 27.4158C208.566 27.1624 208.203 27.0358 207.769 27.0358C207.376 27.0358 207.039 27.1624 206.759 27.4158C206.479 27.6624 206.313 27.9991 206.259 28.4258H209.309ZM213.801 28.9258L216.341 31.6758H214.801L212.761 29.3058V31.6758H211.621V24.2758H212.761V28.5758L214.761 26.1658H216.341L213.801 28.9258Z" fill="white"/>
<rect opacity="0.2" x="248.776" y="19.7095" width="61.9378" height="18.9595" rx="7.75" stroke="white" stroke-width="0.5"/>
<path opacity="0.2" d="M271.136 24.7258C271.876 24.7258 272.523 24.8691 273.076 25.1558C273.636 25.4358 274.066 25.8424 274.366 26.3758C274.673 26.9024 274.826 27.5191 274.826 28.2258C274.826 28.9324 274.673 29.5458 274.366 30.0658C274.066 30.5858 273.636 30.9858 273.076 31.2658C272.523 31.5391 271.876 31.6758 271.136 31.6758H268.866V24.7258H271.136ZM271.136 30.7458C271.949 30.7458 272.573 30.5258 273.006 30.0858C273.439 29.6458 273.656 29.0258 273.656 28.2258C273.656 27.4191 273.439 26.7891 273.006 26.3358C272.573 25.8824 271.949 25.6558 271.136 25.6558H270.006V30.7458H271.136ZM275.576 28.8958C275.576 28.3424 275.689 27.8524 275.916 27.4258C276.149 26.9991 276.462 26.6691 276.856 26.4358C277.256 26.1958 277.696 26.0758 278.176 26.0758C278.609 26.0758 278.986 26.1624 279.306 26.3358C279.632 26.5024 279.892 26.7124 280.086 26.9658V26.1658H281.236V31.6758H280.086V30.8558C279.892 31.1158 279.629 31.3324 279.296 31.5058C278.962 31.6791 278.582 31.7658 278.156 31.7658C277.682 31.7658 277.249 31.6458 276.856 31.4058C276.462 31.1591 276.149 30.8191 275.916 30.3858C275.689 29.9458 275.576 29.4491 275.576 28.8958ZM280.086 28.9158C280.086 28.5358 280.006 28.2058 279.846 27.9258C279.692 27.6458 279.489 27.4324 279.236 27.2858C278.982 27.1391 278.709 27.0658 278.416 27.0658C278.122 27.0658 277.849 27.1391 277.596 27.2858C277.342 27.4258 277.136 27.6358 276.976 27.9158C276.822 28.1891 276.746 28.5158 276.746 28.8958C276.746 29.2758 276.822 29.6091 276.976 29.8958C277.136 30.1824 277.342 30.4024 277.596 30.5558C277.856 30.7024 278.129 30.7758 278.416 30.7758C278.709 30.7758 278.982 30.7024 279.236 30.5558C279.489 30.4091 279.692 30.1958 279.846 29.9158C280.006 29.6291 280.086 29.2958 280.086 28.9158ZM287.693 26.1658L284.313 34.2658H283.133L284.253 31.5858L282.083 26.1658H283.353L284.903 30.3658L286.513 26.1658H287.693Z" fill="white"/>
<path opacity="0.3" d="M46.1129 54.9607C46.1129 55.2434 46.0462 55.5101 45.9129 55.7607C45.7795 56.0114 45.5662 56.2167 45.2729 56.3767C44.9795 56.5314 44.6035 56.6087 44.1449 56.6087H43.1369V58.8647H42.2249V53.3047H44.1449C44.5715 53.3047 44.9315 53.3794 45.2249 53.5287C45.5235 53.6727 45.7449 53.8701 45.8889 54.1207C46.0382 54.3714 46.1129 54.6514 46.1129 54.9607ZM44.1449 55.8647C44.4915 55.8647 44.7502 55.7874 44.9209 55.6327C45.0915 55.4727 45.1769 55.2487 45.1769 54.9607C45.1769 54.3527 44.8329 54.0487 44.1449 54.0487H43.1369V55.8647H44.1449ZM51.0227 56.5527C51.0227 56.7181 51.012 56.8674 50.9907 57.0007H47.6227C47.6494 57.3527 47.78 57.6354 48.0147 57.8487C48.2494 58.0621 48.5374 58.1687 48.8787 58.1687C49.3694 58.1687 49.716 57.9634 49.9187 57.5527H50.9027C50.7694 57.9581 50.5267 58.2914 50.1747 58.5527C49.828 58.8087 49.396 58.9367 48.8787 58.9367C48.4574 58.9367 48.0787 58.8434 47.7427 58.6567C47.412 58.4647 47.1507 58.1981 46.9587 57.8567C46.772 57.5101 46.6787 57.1101 46.6787 56.6567C46.6787 56.2034 46.7694 55.8061 46.9507 55.4647C47.1374 55.1181 47.396 54.8514 47.7267 54.6647C48.0627 54.4781 48.4467 54.3847 48.8787 54.3847C49.2947 54.3847 49.6654 54.4754 49.9907 54.6567C50.316 54.8381 50.5694 55.0941 50.7507 55.4247C50.932 55.7501 51.0227 56.1261 51.0227 56.5527ZM50.0707 56.2647C50.0654 55.9287 49.9454 55.6594 49.7107 55.4567C49.476 55.2541 49.1854 55.1527 48.8387 55.1527C48.524 55.1527 48.2547 55.2541 48.0307 55.4567C47.8067 55.6541 47.6734 55.9234 47.6307 56.2647H50.0707ZM53.8322 58.9367C53.4162 58.9367 53.0402 58.8434 52.7042 58.6567C52.3682 58.4647 52.1042 58.1981 51.9122 57.8567C51.7202 57.5101 51.6242 57.1101 51.6242 56.6567C51.6242 56.2087 51.7229 55.8114 51.9202 55.4647C52.1175 55.1181 52.3869 54.8514 52.7282 54.6647C53.0695 54.4781 53.4509 54.3847 53.8722 54.3847C54.2935 54.3847 54.6749 54.4781 55.0162 54.6647C55.3575 54.8514 55.6269 55.1181 55.8242 55.4647C56.0215 55.8114 56.1202 56.2087 56.1202 56.6567C56.1202 57.1047 56.0189 57.5021 55.8162 57.8487C55.6135 58.1954 55.3362 58.4647 54.9842 58.6567C54.6375 58.8434 54.2535 58.9367 53.8322 58.9367ZM53.8322 58.1447C54.0669 58.1447 54.2855 58.0887 54.4882 57.9767C54.6962 57.8647 54.8642 57.6967 54.9922 57.4727C55.1202 57.2487 55.1842 56.9767 55.1842 56.6567C55.1842 56.3367 55.1229 56.0674 55.0002 55.8487C54.8775 55.6247 54.7149 55.4567 54.5122 55.3447C54.3095 55.2327 54.0909 55.1767 53.8562 55.1767C53.6215 55.1767 53.4029 55.2327 53.2002 55.3447C53.0029 55.4567 52.8455 55.6247 52.7282 55.8487C52.6109 56.0674 52.5522 56.3367 52.5522 56.6567C52.5522 57.1314 52.6722 57.4994 52.9122 57.7607C53.1575 58.0167 53.4642 58.1447 53.8322 58.1447ZM57.9338 55.1047C58.0884 54.9021 58.2991 54.7314 58.5658 54.5927C58.8324 54.4541 59.1338 54.3847 59.4698 54.3847C59.8538 54.3847 60.2031 54.4807 60.5178 54.6727C60.8378 54.8594 61.0884 55.1234 61.2698 55.4647C61.4511 55.8061 61.5418 56.1981 61.5418 56.6407C61.5418 57.0834 61.4511 57.4807 61.2698 57.8327C61.0884 58.1794 60.8378 58.4514 60.5178 58.6487C60.2031 58.8407 59.8538 58.9367 59.4698 58.9367C59.1338 58.9367 58.8351 58.8701 58.5738 58.7367C58.3124 58.5981 58.0991 58.4274 57.9338 58.2247V60.9607H57.0218V54.4567H57.9338V55.1047ZM60.6138 56.6407C60.6138 56.3367 60.5498 56.0754 60.4218 55.8567C60.2991 55.6327 60.1338 55.4647 59.9258 55.3527C59.7231 55.2354 59.5044 55.1767 59.2698 55.1767C59.0404 55.1767 58.8218 55.2354 58.6138 55.3527C58.4111 55.4701 58.2458 55.6407 58.1178 55.8647C57.9951 56.0887 57.9338 56.3527 57.9338 56.6567C57.9338 56.9607 57.9951 57.2274 58.1178 57.4567C58.2458 57.6807 58.4111 57.8514 58.6138 57.9687C58.8218 58.0861 59.0404 58.1447 59.2698 58.1447C59.5044 58.1447 59.7231 58.0861 59.9258 57.9687C60.1338 57.8461 60.2991 57.6701 60.4218 57.4407C60.5498 57.2114 60.6138 56.9447 60.6138 56.6407ZM63.3556 52.9447V58.8647H62.4436V52.9447H63.3556ZM68.593 56.5527C68.593 56.7181 68.5823 56.8674 68.561 57.0007H65.193C65.2197 57.3527 65.3503 57.6354 65.585 57.8487C65.8197 58.0621 66.1077 58.1687 66.449 58.1687C66.9397 58.1687 67.2863 57.9634 67.489 57.5527H68.473C68.3397 57.9581 68.097 58.2914 67.745 58.5527C67.3983 58.8087 66.9663 58.9367 66.449 58.9367C66.0277 58.9367 65.649 58.8434 65.313 58.6567C64.9823 58.4647 64.721 58.1981 64.529 57.8567C64.3423 57.5101 64.249 57.1101 64.249 56.6567C64.249 56.2034 64.3397 55.8061 64.521 55.4647C64.7077 55.1181 64.9663 54.8514 65.297 54.6647C65.633 54.4781 66.017 54.3847 66.449 54.3847C66.865 54.3847 67.2357 54.4754 67.561 54.6567C67.8863 54.8381 68.1397 55.0941 68.321 55.4247C68.5023 55.7501 68.593 56.1261 68.593 56.5527ZM67.641 56.2647C67.6357 55.9287 67.5157 55.6594 67.281 55.4567C67.0463 55.2541 66.7557 55.1527 66.409 55.1527C66.0943 55.1527 65.825 55.2541 65.601 55.4567C65.377 55.6541 65.2437 55.9234 65.201 56.2647H67.641Z" fill="white"/>
<path opacity="0.3" d="M127.62 56.0727C127.62 55.5287 127.745 55.0407 127.996 54.6087C128.252 54.1767 128.596 53.8407 129.028 53.6007C129.465 53.3554 129.943 53.2327 130.46 53.2327C131.052 53.2327 131.577 53.3794 132.036 53.6727C132.5 53.9607 132.836 54.3714 133.044 54.9047H131.948C131.804 54.6114 131.604 54.3927 131.348 54.2487C131.092 54.1047 130.796 54.0327 130.46 54.0327C130.092 54.0327 129.764 54.1154 129.476 54.2807C129.188 54.4461 128.961 54.6834 128.796 54.9927C128.636 55.3021 128.556 55.6621 128.556 56.0727C128.556 56.4834 128.636 56.8434 128.796 57.1527C128.961 57.4621 129.188 57.7021 129.476 57.8727C129.764 58.0381 130.092 58.1207 130.46 58.1207C130.796 58.1207 131.092 58.0487 131.348 57.9047C131.604 57.7607 131.804 57.5421 131.948 57.2487H133.044C132.836 57.7821 132.5 58.1927 132.036 58.4807C131.577 58.7687 131.052 58.9127 130.46 58.9127C129.937 58.9127 129.46 58.7927 129.028 58.5527C128.596 58.3074 128.252 57.9687 127.996 57.5367C127.745 57.1047 127.62 56.6167 127.62 56.0727ZM138.104 54.4567V58.8647H137.192V58.3447C137.048 58.5261 136.858 58.6701 136.624 58.7767C136.394 58.8781 136.149 58.9287 135.888 58.9287C135.541 58.9287 135.229 58.8567 134.952 58.7127C134.68 58.5687 134.464 58.3554 134.304 58.0727C134.149 57.7901 134.072 57.4487 134.072 57.0487V54.4567H134.976V56.9127C134.976 57.3074 135.074 57.6114 135.272 57.8247C135.469 58.0327 135.738 58.1367 136.08 58.1367C136.421 58.1367 136.69 58.0327 136.888 57.8247C137.09 57.6114 137.192 57.3074 137.192 56.9127V54.4567H138.104ZM140.219 55.0967C140.352 54.8727 140.528 54.6994 140.747 54.5767C140.971 54.4487 141.235 54.3847 141.539 54.3847V55.3287H141.307C140.95 55.3287 140.678 55.4194 140.491 55.6007C140.31 55.7821 140.219 56.0967 140.219 56.5447V58.8647H139.307V54.4567H140.219V55.0967ZM143.289 55.0967C143.423 54.8727 143.599 54.6994 143.817 54.5767C144.041 54.4487 144.305 54.3847 144.609 54.3847V55.3287H144.377C144.02 55.3287 143.748 55.4194 143.561 55.6007C143.38 55.7821 143.289 56.0967 143.289 56.5447V58.8647H142.377V54.4567H143.289V55.0967ZM149.488 56.5527C149.488 56.7181 149.477 56.8674 149.456 57.0007H146.088C146.114 57.3527 146.245 57.6354 146.48 57.8487C146.714 58.0621 147.002 58.1687 147.344 58.1687C147.834 58.1687 148.181 57.9634 148.384 57.5527H149.368C149.234 57.9581 148.992 58.2914 148.64 58.5527C148.293 58.8087 147.861 58.9367 147.344 58.9367C146.922 58.9367 146.544 58.8434 146.208 58.6567C145.877 58.4647 145.616 58.1981 145.424 57.8567C145.237 57.5101 145.144 57.1101 145.144 56.6567C145.144 56.2034 145.234 55.8061 145.416 55.4647C145.602 55.1181 145.861 54.8514 146.192 54.6647C146.528 54.4781 146.912 54.3847 147.344 54.3847C147.76 54.3847 148.13 54.4754 148.456 54.6567C148.781 54.8381 149.034 55.0941 149.216 55.4247C149.397 55.7501 149.488 56.1261 149.488 56.5527ZM148.536 56.2647C148.53 55.9287 148.41 55.6594 148.176 55.4567C147.941 55.2541 147.65 55.1527 147.304 55.1527C146.989 55.1527 146.72 55.2541 146.496 55.4567C146.272 55.6541 146.138 55.9234 146.096 56.2647H148.536ZM152.609 54.3847C152.956 54.3847 153.265 54.4567 153.537 54.6007C153.814 54.7447 154.03 54.9581 154.185 55.2407C154.34 55.5234 154.417 55.8647 154.417 56.2647V58.8647H153.513V56.4007C153.513 56.0061 153.414 55.7047 153.217 55.4967C153.02 55.2834 152.75 55.1767 152.409 55.1767C152.068 55.1767 151.796 55.2834 151.593 55.4967C151.396 55.7047 151.297 56.0061 151.297 56.4007V58.8647H150.385V54.4567H151.297V54.9607C151.446 54.7794 151.636 54.6381 151.865 54.5367C152.1 54.4354 152.348 54.3847 152.609 54.3847ZM155.276 56.6567C155.276 56.2034 155.367 55.8061 155.548 55.4647C155.735 55.1181 155.991 54.8514 156.316 54.6647C156.642 54.4781 157.015 54.3847 157.436 54.3847C157.97 54.3847 158.41 54.5127 158.756 54.7687C159.108 55.0194 159.346 55.3794 159.468 55.8487H158.484C158.404 55.6301 158.276 55.4594 158.1 55.3367C157.924 55.2141 157.703 55.1527 157.436 55.1527C157.063 55.1527 156.764 55.2861 156.54 55.5527C156.322 55.8141 156.212 56.1821 156.212 56.6567C156.212 57.1314 156.322 57.5021 156.54 57.7687C156.764 58.0354 157.063 58.1687 157.436 58.1687C157.964 58.1687 158.314 57.9367 158.484 57.4727H159.468C159.34 57.9207 159.1 58.2781 158.748 58.5447C158.396 58.8061 157.959 58.9367 157.436 58.9367C157.015 58.9367 156.642 58.8434 156.316 58.6567C155.991 58.4647 155.735 58.1981 155.548 57.8567C155.367 57.5101 155.276 57.1101 155.276 56.6567ZM164.345 54.4567L161.641 60.9367H160.697L161.593 58.7927L159.857 54.4567H160.873L162.113 57.8167L163.401 54.4567H164.345Z" fill="white"/>
<path opacity="0.3" d="M36.2287 57.1621C36.2287 60.2414 33.715 62.7432 30.6073 62.7432C27.4996 62.7432 24.986 60.2414 24.986 57.1621C24.986 54.0829 27.4996 51.5811 30.6073 51.5811C33.715 51.5811 36.2287 54.0829 36.2287 57.1621Z" stroke="white"/>
<ellipse opacity="0.3" cx="116.305" cy="57.1621" rx="6.12135" ry="6.08108" fill="white" fill-opacity="0.3"/>
<defs>
<filter id="filter0_d_2025_99" x="3.57642" y="79.1262" width="369.08" height="96.7378" filterUnits="userSpaceOnUse" color-interpolation-filters="sRGB">
<feFlood flood-opacity="0" result="BackgroundImageFix"/>
<feColorMatrix in="SourceAlpha" type="matrix" values="0 0 0 0 0 0 0 0 0 0 0 0 0 0 0 0 0 0 127 0" result="hardAlpha"/>
<feOffset dy="4"/>
<feGaussianBlur stdDeviation="12"/>
<feComposite in2="hardAlpha" operator="out"/>
<feColorMatrix type="matrix" values="0 0 0 0 0.0705882 0 0 0 0 0.713726 0 0 0 0 0.411765 0 0 0 1 0"/>
<feBlend mode="normal" in2="BackgroundImageFix" result="effect1_dropShadow_2025_99"/>
<feBlend mode="normal" in="SourceGraphic" in2="effect1_dropShadow_2025_99" result="shape"/>
</filter>
</defs>
</svg>
