<svg width="1440" height="1033" viewBox="0 0 1440 1033" fill="none" xmlns="http://www.w3.org/2000/svg">
<line opacity="0.1" x1="50.25" y1="1.09278e-08" x2="50.25" y2="818" stroke="white" stroke-width="0.5"/>
<line opacity="0.1" y1="160.75" x2="1062" y2="160.75" stroke="white" stroke-width="0.5"/>
<rect width="0.525989" height="0.7" transform="matrix(1 0 0 -1 37.5 161)" fill="white"/>
<line opacity="0.1" y1="484.75" x2="1062" y2="484.75" stroke="white" stroke-width="0.5"/>
<rect width="0.525989" height="0.7" transform="matrix(1 0 0 -1 37.5 485)" fill="white"/>
<line opacity="0.1" y1="79.75" x2="1062" y2="79.75" stroke="white" stroke-width="0.5"/>
<rect width="0.525989" height="0.7" transform="matrix(1 0 0 -1 37.5 80)" fill="white"/>
<rect width="0.525989" height="0.7" transform="matrix(1 0 0 -1 157.5 80.0002)" fill="white"/>
<rect width="0.525989" height="0.7" transform="matrix(1 0 0 -1 218.25 80.0002)" fill="white"/>
<rect width="0.525989" height="0.7" transform="matrix(1 0 0 -1 279 80.0002)" fill="white"/>
<rect width="0.525989" height="0.7" transform="matrix(1 0 0 -1 339.75 80.0002)" fill="white"/>
<rect width="0.525989" height="0.7" transform="matrix(1 0 0 -1 400.5 80.0002)" fill="white"/>
<rect width="0.525989" height="0.7" transform="matrix(1 0 0 -1 461.25 80.0002)" fill="white"/>
<rect width="0.525989" height="0.7" transform="matrix(1 0 0 -1 522 80.0002)" fill="white"/>
<rect width="0.525989" height="0.7" transform="matrix(1 0 0 -1 582.75 80.0002)" fill="white"/>
<rect width="0.525989" height="0.7" transform="matrix(1 0 0 -1 643.5 80.0002)" fill="white"/>
<rect width="0.525989" height="0.7" transform="matrix(1 0 0 -1 704.25 80.0002)" fill="white"/>
<line opacity="0.1" y1="403.75" x2="1062" y2="403.75" stroke="white" stroke-width="0.5"/>
<rect width="0.525989" height="0.7" transform="matrix(1 0 0 -1 37.5 404)" fill="white"/>
<line opacity="0.1" y1="241.75" x2="1062" y2="241.75" stroke="white" stroke-width="0.5"/>
<rect width="0.525989" height="0.7" transform="matrix(1 0 0 -1 37.5 242)" fill="white"/>
<line opacity="0.1" y1="565.75" x2="1062" y2="565.75" stroke="white" stroke-width="0.5"/>
<rect width="0.525989" height="0.7" transform="matrix(1 0 0 -1 37.5 566)" fill="white"/>
<line opacity="0.1" y1="322.75" x2="1062" y2="322.75" stroke="white" stroke-width="0.5"/>
<rect width="0.525989" height="0.7" transform="matrix(1 0 0 -1 37.5 323)" fill="white"/>
<line opacity="0.1" y1="646.75" x2="1062" y2="646.75" stroke="white" stroke-width="0.5"/>
<rect width="0.525989" height="0.7" transform="matrix(1 0 0 -1 37.5 647)" fill="white"/>
<rect width="0.525989" height="0.7" transform="matrix(1 0 0 -1 97.5 161)" fill="white"/>
<rect width="0.525989" height="0.7" transform="matrix(1 0 0 -1 97.5 485)" fill="white"/>
<rect width="0.525989" height="0.7" transform="matrix(1 0 0 -1 97.5 80.0002)" fill="white"/>
<rect width="0.525989" height="0.7" transform="matrix(1 0 0 -1 97.5 404)" fill="white"/>
<rect width="0.525989" height="0.7" transform="matrix(1 0 0 -1 97.5 242)" fill="white"/>
<rect width="0.525989" height="0.7" transform="matrix(1 0 0 -1 97.5 566)" fill="white"/>
<rect width="0.525989" height="0.7" transform="matrix(1 0 0 -1 97.5 323)" fill="white"/>
<rect width="0.525989" height="0.7" transform="matrix(1 0 0 -1 97.5 647)" fill="white"/>
<rect width="0.5" height="0.5" transform="matrix(1 0 0 -1 50 202)" fill="#626262"/>
<rect width="0.5" height="0.5" transform="matrix(1 0 0 -1 50 526)" fill="#626262"/>
<rect width="0.5" height="0.5" transform="matrix(1 0 0 -1 50 253)" fill="#626262"/>
<rect width="0.5" height="0.5" transform="matrix(1 0 0 -1 50 577)" fill="#626262"/>
<line opacity="0.1" x1="130.25" y1="1.09278e-08" x2="130.25" y2="818" stroke="white" stroke-width="0.5"/>
<rect width="0.7" height="0.7" transform="matrix(1 0 0 -1 210 161)" fill="white"/>
<rect width="0.7" height="0.7" transform="matrix(1 0 0 -1 210 485)" fill="white"/>
<rect width="0.7" height="0.7" transform="matrix(1 0 0 -1 210 404)" fill="white"/>
<rect width="0.7" height="0.7" transform="matrix(1 0 0 -1 210 242)" fill="white"/>
<rect width="0.7" height="0.7" transform="matrix(1 0 0 -1 210 566)" fill="white"/>
<rect width="0.7" height="0.7" transform="matrix(1 0 0 -1 210 323)" fill="white"/>
<rect width="0.7" height="0.7" transform="matrix(1 0 0 -1 210 647)" fill="white"/>
<line opacity="0.1" x1="210.25" y1="1.09278e-08" x2="210.25" y2="818" stroke="white" stroke-width="0.5"/>
<rect width="0.7" height="0.7" transform="matrix(1 0 0 -1 291 161)" fill="white"/>
<rect width="0.7" height="0.7" transform="matrix(1 0 0 -1 291 485)" fill="white"/>
<rect width="0.7" height="0.7" transform="matrix(1 0 0 -1 291 404)" fill="white"/>
<rect width="0.7" height="0.7" transform="matrix(1 0 0 -1 291 242)" fill="white"/>
<rect width="0.7" height="0.7" transform="matrix(1 0 0 -1 291 566)" fill="white"/>
<rect width="0.7" height="0.7" transform="matrix(1 0 0 -1 291 323)" fill="white"/>
<rect width="0.7" height="0.7" transform="matrix(1 0 0 -1 291 647)" fill="white"/>
<line opacity="0.1" x1="291.25" y1="1.09278e-08" x2="291.25" y2="818" stroke="white" stroke-width="0.5"/>
<rect width="0.7" height="0.7" transform="matrix(1 0 0 -1 372 161)" fill="white"/>
<rect width="0.7" height="0.7" transform="matrix(1 0 0 -1 372 485)" fill="white"/>
<rect width="0.7" height="0.7" transform="matrix(1 0 0 -1 372 404)" fill="white"/>
<rect width="0.7" height="0.7" transform="matrix(1 0 0 -1 372 242)" fill="white"/>
<rect width="0.7" height="0.7" transform="matrix(1 0 0 -1 372 566)" fill="white"/>
<rect width="0.7" height="0.7" transform="matrix(1 0 0 -1 372 323)" fill="white"/>
<rect width="0.7" height="0.7" transform="matrix(1 0 0 -1 372 647)" fill="white"/>
<line opacity="0.1" x1="372.25" y1="1.09278e-08" x2="372.25" y2="818" stroke="white" stroke-width="0.5"/>
<rect width="0.7" height="0.7" transform="matrix(1 0 0 -1 453 161)" fill="white"/>
<rect width="0.7" height="0.7" transform="matrix(1 0 0 -1 453 485)" fill="white"/>
<rect width="0.7" height="0.7" transform="matrix(1 0 0 -1 453 404)" fill="white"/>
<rect width="0.7" height="0.7" transform="matrix(1 0 0 -1 453 242)" fill="white"/>
<rect width="0.7" height="0.7" transform="matrix(1 0 0 -1 453 566)" fill="white"/>
<rect width="0.7" height="0.7" transform="matrix(1 0 0 -1 453 323)" fill="white"/>
<rect width="0.7" height="0.7" transform="matrix(1 0 0 -1 453 647)" fill="white"/>
<line opacity="0.1" x1="453.25" y1="1.09278e-08" x2="453.25" y2="818" stroke="white" stroke-width="0.5"/>
<rect width="0.7" height="0.7" transform="matrix(1 0 0 -1 534 161)" fill="white"/>
<rect width="0.7" height="0.7" transform="matrix(1 0 0 -1 534 485)" fill="white"/>
<rect width="0.7" height="0.7" transform="matrix(1 0 0 -1 534 404)" fill="white"/>
<rect width="0.7" height="0.7" transform="matrix(1 0 0 -1 534 242)" fill="white"/>
<rect width="0.7" height="0.7" transform="matrix(1 0 0 -1 534 566)" fill="white"/>
<rect width="0.7" height="0.7" transform="matrix(1 0 0 -1 534 323)" fill="white"/>
<rect width="0.7" height="0.7" transform="matrix(1 0 0 -1 534 647)" fill="white"/>
<line opacity="0.1" x1="534.25" y1="1.09278e-08" x2="534.25" y2="818" stroke="white" stroke-width="0.5"/>
<rect width="0.7" height="0.7" transform="matrix(1 0 0 -1 615 161)" fill="white"/>
<rect width="0.7" height="0.7" transform="matrix(1 0 0 -1 615 485)" fill="white"/>
<rect width="0.7" height="0.7" transform="matrix(1 0 0 -1 615 404)" fill="white"/>
<rect width="0.7" height="0.7" transform="matrix(1 0 0 -1 615 242)" fill="white"/>
<rect width="0.7" height="0.7" transform="matrix(1 0 0 -1 615 566)" fill="white"/>
<rect width="0.7" height="0.7" transform="matrix(1 0 0 -1 615 323)" fill="white"/>
<rect width="0.7" height="0.7" transform="matrix(1 0 0 -1 615 647)" fill="white"/>
<line opacity="0.1" x1="615.25" y1="1.09278e-08" x2="615.25" y2="818" stroke="white" stroke-width="0.5"/>
<rect width="0.7" height="0.7" transform="matrix(1 0 0 -1 696 161)" fill="white"/>
<rect width="0.7" height="0.7" transform="matrix(1 0 0 -1 696 485)" fill="white"/>
<rect width="0.7" height="0.7" transform="matrix(1 0 0 -1 696 404)" fill="white"/>
<rect width="0.7" height="0.7" transform="matrix(1 0 0 -1 696 242)" fill="white"/>
<rect width="0.7" height="0.7" transform="matrix(1 0 0 -1 696 566)" fill="white"/>
<rect width="0.7" height="0.7" transform="matrix(1 0 0 -1 696 323)" fill="white"/>
<rect width="0.7" height="0.7" transform="matrix(1 0 0 -1 696 647)" fill="white"/>
<line opacity="0.1" x1="696.25" y1="1.09278e-08" x2="696.25" y2="818" stroke="white" stroke-width="0.5"/>
<rect width="0.7" height="0.7" transform="matrix(1 0 0 -1 777 161)" fill="white"/>
<rect width="0.7" height="0.7" transform="matrix(1 0 0 -1 777 485)" fill="white"/>
<rect width="0.7" height="0.7" transform="matrix(1 0 0 -1 777 404)" fill="white"/>
<rect width="0.7" height="0.7" transform="matrix(1 0 0 -1 777 242)" fill="white"/>
<rect width="0.7" height="0.7" transform="matrix(1 0 0 -1 777 566)" fill="white"/>
<rect width="0.7" height="0.7" transform="matrix(1 0 0 -1 777 323)" fill="white"/>
<rect width="0.7" height="0.7" transform="matrix(1 0 0 -1 777 647)" fill="white"/>
<line opacity="0.1" x1="777.25" y1="1.09278e-08" x2="777.25" y2="818" stroke="white" stroke-width="0.5"/>
<rect width="0.7" height="0.7" transform="matrix(1 0 0 -1 858 161)" fill="white"/>
<rect width="0.7" height="0.7" transform="matrix(1 0 0 -1 858 485)" fill="white"/>
<rect width="0.7" height="0.7" transform="matrix(1 0 0 -1 858 404)" fill="white"/>
<rect width="0.7" height="0.7" transform="matrix(1 0 0 -1 858 242)" fill="white"/>
<rect width="0.7" height="0.7" transform="matrix(1 0 0 -1 858 566)" fill="white"/>
<rect width="0.7" height="0.7" transform="matrix(1 0 0 -1 858 323)" fill="white"/>
<rect width="0.7" height="0.7" transform="matrix(1 0 0 -1 858 647)" fill="white"/>
<line opacity="0.1" x1="858.25" y1="1.09278e-08" x2="858.25" y2="818" stroke="white" stroke-width="0.5"/>
<rect width="0.7" height="0.7" transform="matrix(1 0 0 -1 939 161)" fill="white"/>
<rect width="0.7" height="0.7" transform="matrix(1 0 0 -1 939 485)" fill="white"/>
<rect width="0.7" height="0.7" transform="matrix(1 0 0 -1 939 404)" fill="white"/>
<rect width="0.7" height="0.7" transform="matrix(1 0 0 -1 939 242)" fill="white"/>
<rect width="0.7" height="0.7" transform="matrix(1 0 0 -1 939 566)" fill="white"/>
<rect width="0.7" height="0.7" transform="matrix(1 0 0 -1 939 323)" fill="white"/>
<rect width="0.7" height="0.7" transform="matrix(1 0 0 -1 939 647)" fill="white"/>
<line opacity="0.1" x1="939.25" y1="1.09278e-08" x2="939.25" y2="818" stroke="white" stroke-width="0.5"/>
<rect width="0.5" height="0.5" transform="matrix(1 0 0 -1 130 261)" fill="#626262"/>
<rect width="0.5" height="0.5" transform="matrix(1 0 0 -1 240 261)" fill="#626262"/>
<rect width="0.5" height="0.5" transform="matrix(1 0 0 -1 130 585)" fill="#626262"/>
<rect width="0.5" height="0.5" transform="matrix(1 0 0 -1 240 585)" fill="#626262"/>
<g filter="url(#filter0_f_2001_104)">
<circle cx="611.5" cy="110.5" r="258.5" fill="#008D53"/>
</g>
<g filter="url(#filter1_f_2001_104)">
<circle cx="1101.5" cy="360.5" r="258.5" fill="black"/>
</g>
<defs>
<filter id="filter0_f_2001_104" x="-171" y="-672" width="1565" height="1565" filterUnits="userSpaceOnUse" color-interpolation-filters="sRGB">
<feFlood flood-opacity="0" result="BackgroundImageFix"/>
<feBlend mode="normal" in="SourceGraphic" in2="BackgroundImageFix" result="shape"/>
<feGaussianBlur stdDeviation="262" result="effect1_foregroundBlur_2001_104"/>
</filter>
<filter id="filter1_f_2001_104" x="429" y="-312" width="1345" height="1345" filterUnits="userSpaceOnUse" color-interpolation-filters="sRGB">
<feFlood flood-opacity="0" result="BackgroundImageFix"/>
<feBlend mode="normal" in="SourceGraphic" in2="BackgroundImageFix" result="shape"/>
<feGaussianBlur stdDeviation="207" result="effect1_foregroundBlur_2001_104"/>
</filter>
</defs>
</svg>
