<svg width="20" height="20" viewBox="0 0 20 20" fill="none" xmlns="http://www.w3.org/2000/svg">
<g opacity="0.5" clip-path="url(#clip0_75_494)">
<path d="M14.0016 6.89375C14.4986 6.89375 14.9016 6.49081 14.9016 5.99375C14.9016 5.49669 14.4986 5.09375 14.0016 5.09375C13.5045 5.09375 13.1016 5.49669 13.1016 5.99375C13.1016 6.49081 13.5045 6.89375 14.0016 6.89375Z" fill="white"/>
<path d="M10.0001 6.14862C9.23833 6.14862 8.4937 6.3745 7.86035 6.79769C7.22699 7.22089 6.73335 7.82239 6.44185 8.52614C6.15035 9.22988 6.07408 10.0043 6.22269 10.7514C6.37129 11.4985 6.7381 12.1847 7.27673 12.7233C7.81535 13.262 8.5016 13.6288 9.24869 13.7774C9.99579 13.926 10.7702 13.8497 11.4739 13.5582C12.1777 13.2667 12.7792 12.7731 13.2024 12.1397C13.6256 11.5063 13.8514 10.7617 13.8514 10C13.8514 8.97855 13.4457 7.99894 12.7234 7.27666C12.0011 6.55439 11.0215 6.14862 10.0001 6.14862ZM10.0001 12.5C9.50561 12.5 9.02226 12.3534 8.61113 12.0787C8.20001 11.804 7.87958 11.4135 7.69036 10.9567C7.50114 10.4999 7.45163 9.99722 7.54809 9.51227C7.64456 9.02732 7.88266 8.58186 8.23229 8.23223C8.58192 7.8826 9.02738 7.6445 9.51233 7.54803C9.99729 7.45157 10.5 7.50108 10.9568 7.6903C11.4136 7.87952 11.804 8.19995 12.0787 8.61107C12.3534 9.02219 12.5001 9.50554 12.5001 10C12.5001 10.663 12.2367 11.2989 11.7678 11.7678C11.299 12.2366 10.6631 12.5 10.0001 12.5Z" fill="white"/>
<path d="M10 3.85137C12.0026 3.85137 12.2398 3.859 13.0306 3.89513C13.5062 3.90079 13.9773 3.98814 14.4233 4.15338C14.7467 4.27818 15.0405 4.4693 15.2856 4.71444C15.5308 4.95958 15.7219 5.25331 15.8467 5.57675C16.0119 6.02276 16.0993 6.49384 16.1049 6.96944C16.141 7.76025 16.1487 7.9975 16.1487 10.0001C16.1487 12.0026 16.1411 12.2399 16.1049 13.0307C16.0993 13.5063 16.0119 13.9774 15.8467 14.4234C15.7219 14.7468 15.5308 15.0405 15.2856 15.2857C15.0405 15.5308 14.7467 15.7219 14.4233 15.8467C13.9773 16.012 13.5062 16.0993 13.0306 16.105C12.2399 16.1411 12.0028 16.1487 10 16.1487C7.99725 16.1487 7.76013 16.1411 6.96938 16.105C6.49378 16.0993 6.02269 16.012 5.57669 15.8467C5.25325 15.7219 4.95951 15.5308 4.71437 15.2857C4.46923 15.0405 4.27812 14.7468 4.15331 14.4234C3.98808 13.9774 3.90072 13.5063 3.89506 13.0307C3.859 12.2399 3.85131 12.0026 3.85131 10.0001C3.85131 7.9975 3.85894 7.76025 3.89506 6.96944C3.90072 6.49384 3.98808 6.02276 4.15331 5.57675C4.27811 5.2533 4.46922 4.95955 4.71436 4.7144C4.9595 4.46925 5.25324 4.27812 5.57669 4.15331C6.02269 3.98808 6.49378 3.90072 6.96938 3.89506C7.76019 3.859 7.99744 3.85131 10 3.85131V3.85137ZM10 2.5C7.96312 2.5 7.70769 2.50862 6.90775 2.54512C6.28566 2.55761 5.67018 2.67549 5.0875 2.89375C4.58921 3.08645 4.13667 3.38112 3.7589 3.7589C3.38112 4.13667 3.08645 4.58921 2.89375 5.0875C2.67546 5.67028 2.55758 6.28586 2.54512 6.90806C2.50862 7.70769 2.5 7.96312 2.5 10C2.5 12.0369 2.50862 12.2923 2.54512 13.0922C2.55759 13.7144 2.67547 14.33 2.89375 14.9128C3.08645 15.4111 3.38112 15.8636 3.7589 16.2414C4.13667 16.6192 4.58921 16.9139 5.0875 17.1066C5.67028 17.3249 6.28586 17.4427 6.90806 17.4552C7.70769 17.4914 7.96312 17.5 10 17.5C12.0369 17.5 12.2923 17.4914 13.0922 17.4549C13.7144 17.4424 14.33 17.3245 14.9128 17.1063C15.4111 16.9136 15.8636 16.6189 16.2414 16.2411C16.6192 15.8633 16.9139 15.4108 17.1066 14.9125C17.3248 14.3297 17.4427 13.7141 17.4552 13.0919C17.4914 12.2923 17.5 12.0369 17.5 10C17.5 7.96312 17.4914 7.70769 17.4549 6.90775C17.4424 6.28566 17.3245 5.67018 17.1063 5.0875C16.9135 4.58927 16.6188 4.13679 16.2411 3.75907C15.8633 3.38135 15.4108 3.08672 14.9125 2.89406C14.3297 2.67578 13.7141 2.5579 13.0919 2.54544C12.2923 2.50863 12.0369 2.5 10 2.5Z" fill="white"/>
</g>
<defs>
<clipPath id="clip0_75_494">
<rect width="20" height="20" fill="white"/>
</clipPath>
</defs>
</svg>
