<svg width="133" height="133" viewBox="0 0 133 133" fill="none" xmlns="http://www.w3.org/2000/svg">
<g opacity="0.2">
<path d="M31.5646 59.4071C32.2741 59.4071 32.8063 59.9392 33.1603 60.4714C33.5151 61.0035 33.5151 61.713 33.1603 62.2444C32.2734 63.6628 31.9186 65.2592 31.9186 66.855V67.7419C31.9186 68.0967 31.9186 68.274 32.096 68.6288C32.096 68.8062 32.096 69.161 32.2734 69.3384C32.2734 69.5157 32.2734 69.6931 32.4507 69.8705C32.4507 70.0479 32.6281 70.2253 32.6281 70.4027C32.6281 70.4027 32.6281 70.58 32.8055 70.58C32.9829 70.7574 32.9829 70.9348 33.1603 71.2896C33.3377 71.467 33.3377 71.6443 33.515 71.8217C34.2246 72.886 34.9334 73.5948 35.8203 74.3043C35.9977 74.4816 36.3525 74.659 36.5299 74.659C37.5942 75.1912 38.6577 75.7233 39.8993 75.7233H40.9636C45.9289 75.7233 50.008 71.645 50.008 66.679C50.008 65.6147 50.8949 64.7284 51.9585 64.7284C53.0228 64.7284 53.9091 65.6153 53.9091 66.679C53.9091 73.772 48.0569 79.4468 41.1413 79.4468H40.7865C40.4317 80.6885 40.4317 81.752 40.4317 82.9937C40.4317 90.9737 46.8161 97.3581 54.7961 97.3581C58.8745 97.3581 62.7761 95.585 65.6136 92.3928C65.7909 92.038 66.1457 91.8606 66.5005 91.8606V84.5901C61.8899 83.7032 58.343 79.6248 58.343 74.6596C58.343 73.5953 59.2299 72.709 60.2936 72.709C61.3579 72.709 62.2441 73.5959 62.2441 74.6596C62.2441 77.497 64.0172 79.8021 66.4997 80.5118V60.2939C61.8892 59.4069 58.3423 55.3286 58.3423 50.3633C58.3423 49.299 59.2292 48.4128 60.2928 48.4128C61.3571 48.4128 62.2433 49.2997 62.2433 50.3633C62.2433 53.2008 64.0164 55.5059 66.499 56.2155L66.4997 35.8228C61.8892 34.9359 58.3422 30.8575 58.3422 25.8923C58.3422 24.828 59.2292 23.9417 60.2928 23.9417C61.3571 23.9417 62.2433 24.8286 62.2433 25.8923C62.2433 28.7297 64.0164 31.0348 66.4989 31.7445L66.4997 14.3653C66.1449 14.3653 65.7902 14.0106 65.6128 13.8332C62.2441 10.641 58.3422 8.86792 54.2641 8.86792C46.2841 8.86792 39.8997 15.2515 39.8997 23.2315C39.8997 23.9411 39.8997 24.8272 40.0771 25.7141C40.2545 26.2462 40.0771 26.7784 39.7223 27.3098C39.3675 27.6645 38.8354 28.0193 38.304 28.0193H38.1266H37.2397C36.8849 28.0193 36.7075 28.0193 36.3528 28.1967C35.8206 28.3741 35.2885 28.5515 34.7571 28.7288C34.4023 28.9062 34.2249 28.9062 34.0475 29.0836C33.8702 29.261 33.5154 29.4384 33.338 29.4384C32.9832 29.6158 32.8059 29.7932 32.6285 29.9705C32.4511 30.1479 32.0963 30.3253 31.9189 30.6801C31.5642 31.0348 31.3868 31.2122 31.2094 31.567C31.032 31.9218 30.6772 32.2765 30.4999 32.6313C30.3225 32.9861 30.1451 33.1634 30.1451 33.5182C29.9677 33.873 29.9677 34.0504 29.7903 34.4051C29.2597 34.581 29.2597 34.7584 29.2597 34.7584C29.2597 34.9358 29.2597 35.1132 29.0823 35.2906C29.0823 35.468 28.9049 35.8227 28.9049 36.0001V36.887V37.5966V38.1287C28.9049 38.3061 28.9049 38.4835 29.0823 38.6609V38.8383C29.0823 39.0156 29.0823 39.0156 29.2597 39.193V39.3704C29.2597 39.5478 29.437 39.7252 29.437 39.9026C29.437 40.0799 29.437 40.0799 29.6144 40.2573C31.0327 43.4495 34.225 45.7548 37.9491 45.7548C39.0135 45.7548 39.8997 46.6417 39.8997 47.7053C39.8997 48.7696 39.0128 49.6559 37.9491 49.6559C33.3386 49.6559 29.2597 47.1733 26.9544 43.4489C24.8266 45.0446 23.585 47.7046 23.585 50.3646C23.585 54.9743 26.9544 58.876 31.565 59.4082L31.5646 59.4071Z" fill="url(#paint0_linear_75_549)"/>
<path d="M109.415 50.54C109.415 47.1705 107.465 43.9784 104.273 42.56C103.386 42.0279 102.854 41.1417 103.386 40.0775C103.741 39.0132 103.918 37.9496 103.918 36.8853V36.7079C104.095 34.5801 103.386 32.6295 101.967 31.0332C100.726 29.7915 99.3074 28.9053 97.7118 28.3732C97.5344 28.1958 97.1796 28.1958 97.0022 28.1958C96.6475 28.1958 96.4701 28.0184 96.1153 28.0184H95.051H94.5189C89.731 28.1958 86.0067 32.0967 86.0067 36.8853C86.0067 37.9496 85.1197 38.8359 84.0561 38.8359C82.9918 38.8359 82.1056 37.9489 82.1056 36.8853C82.1056 30.5009 86.8934 25.1809 92.923 24.2948V23.4078C93.1004 15.2504 86.7161 8.86694 78.7361 8.86694C75.5439 8.86694 72.3517 9.93125 69.6917 12.0591V12.4139V31.9212C72.1743 31.0343 73.9474 28.729 73.9474 26.069C73.9474 25.0047 74.8343 24.1185 75.8979 24.1185C76.9622 24.1185 77.8484 25.0054 77.8484 26.069C77.8484 31.0343 74.3015 35.1134 69.691 35.9996V56.5709C72.1735 55.684 73.9466 53.3787 73.9466 50.7187C73.9466 49.6544 74.8335 48.7682 75.8971 48.7682C76.9614 48.7682 77.8477 49.6551 77.8477 50.7187C77.8477 55.684 74.3008 59.7631 69.6902 60.6492V81.2206C72.1728 80.3336 73.9458 78.0284 73.9458 75.3684C73.9458 74.3041 74.8328 73.4178 75.8964 73.4178C76.9607 73.4178 77.8469 74.3047 77.8469 75.3684C77.8469 80.3336 74.3 84.4127 69.6895 85.2989L69.6924 93.9891V94.3439C72.175 96.4717 75.3672 97.5361 78.7368 97.5361C86.7168 97.5361 93.1012 91.1517 93.1012 83.1717C93.1012 81.93 92.9238 80.8664 92.569 79.6248H92.2143C85.1212 79.6248 79.4465 73.7726 79.4465 66.857C79.4465 65.7927 80.3334 64.9064 81.397 64.9064C82.4613 64.9064 83.3475 65.7933 83.3475 66.857C83.3475 71.8222 87.4259 75.9013 92.3919 75.9013C92.5693 75.9013 92.9241 75.9013 93.1015 76.0787C93.2788 75.9013 93.6336 75.9013 93.811 75.724C98.2441 75.0144 101.436 71.2909 101.436 66.857C101.436 65.2613 100.904 63.6648 100.195 62.2465C99.8398 61.7143 99.8398 61.0048 100.195 60.4734C100.549 59.9413 101.082 59.4091 101.79 59.4091C106.046 58.8769 109.416 54.9753 109.416 50.5422L109.415 50.54Z" fill="url(#paint1_linear_75_549)"/>
</g>
<defs>
<linearGradient id="paint0_linear_75_549" x1="85.1384" y1="-40.9717" x2="-76.2903" y2="33.9156" gradientUnits="userSpaceOnUse">
<stop stop-color="#00FE78"/>
<stop offset="1" stop-opacity="0"/>
</linearGradient>
<linearGradient id="paint1_linear_75_549" x1="126.668" y1="-41.0735" x2="-26.7454" y2="24.6734" gradientUnits="userSpaceOnUse">
<stop stop-color="#00FE78"/>
<stop offset="1" stop-opacity="0"/>
</linearGradient>
</defs>
</svg>
