<svg width="87" height="90" viewBox="0 0 87 90" fill="none" xmlns="http://www.w3.org/2000/svg">
<path d="M8.56459 51.4072C9.27413 51.4072 9.80628 51.9393 10.1603 52.4715C10.5151 53.0036 10.5151 53.7132 10.1603 54.2446C9.27337 55.6629 8.9186 57.2593 8.9186 58.8551V59.742C8.9186 60.0968 8.9186 60.2742 9.09598 60.6289C9.09598 60.8063 9.09598 61.1611 9.27336 61.3385C9.27336 61.5159 9.27336 61.6932 9.45075 61.8706C9.45075 62.048 9.62813 62.2254 9.62813 62.4028C9.62813 62.4028 9.62813 62.5802 9.80551 62.5802C9.98289 62.7575 9.98289 62.9349 10.1603 63.2897C10.3377 63.4671 10.3377 63.6445 10.515 63.8218C11.2246 64.8861 11.9334 65.5949 12.8203 66.3044C12.9977 66.4818 13.3525 66.6592 13.5299 66.6592C14.5942 67.1913 15.6577 67.7235 16.8993 67.7235H17.9636C22.9289 67.7235 27.008 63.6451 27.008 58.6791C27.008 57.6148 27.8949 56.7285 28.9585 56.7285C30.0228 56.7285 30.9091 57.6155 30.9091 58.6791C30.9091 65.7722 25.0569 71.4469 18.1413 71.4469H17.7865C17.4317 72.6886 17.4317 73.7522 17.4317 74.9938C17.4317 82.9738 23.8161 89.3582 31.7961 89.3582C35.8745 89.3582 39.7761 87.5851 42.6136 84.3929C42.7909 84.0381 43.1457 83.8608 43.5005 83.8608V76.5902C38.8899 75.7033 35.343 71.625 35.343 66.6597C35.343 65.5954 36.2299 64.7091 37.2936 64.7091C38.3579 64.7091 39.2441 65.5961 39.2441 66.6597C39.2441 69.4971 41.0172 71.8022 43.4997 72.5119V52.294C38.8892 51.4071 35.3423 47.3287 35.3423 42.3634C35.3423 41.2991 36.2292 40.4129 37.2928 40.4129C38.3571 40.4129 39.2433 41.2998 39.2433 42.3634C39.2433 45.2009 41.0164 47.506 43.499 48.2156L43.4997 27.8229C38.8892 26.936 35.3422 22.8577 35.3422 17.8924C35.3422 16.8281 36.2292 15.9418 37.2928 15.9418C38.3571 15.9418 39.2433 16.8288 39.2433 17.8924C39.2433 20.7298 41.0164 23.0349 43.4989 23.7446L43.4997 6.36546C43.1449 6.36546 42.7902 6.0107 42.6128 5.83331C39.2441 2.64112 35.3422 0.868042 31.2641 0.868042C23.2841 0.868042 16.8997 7.25166 16.8997 15.2317C16.8997 15.9412 16.8997 16.8274 17.0771 17.7142C17.2545 18.2464 17.0771 18.7785 16.7223 19.3099C16.3675 19.6647 15.8354 20.0194 15.304 20.0194H15.1266H14.2397C13.8849 20.0194 13.7075 20.0194 13.3528 20.1968C12.8206 20.3742 12.2885 20.5516 11.7571 20.729C11.4023 20.9064 11.2249 20.9064 11.0475 21.0837C10.8702 21.2611 10.5154 21.4385 10.338 21.4385C9.98324 21.6159 9.80585 21.7933 9.62847 21.9707C9.45109 22.148 9.09632 22.3254 8.91893 22.6802C8.56417 23.035 8.38678 23.2123 8.2094 23.5671C8.03201 23.9219 7.67725 24.2766 7.49986 24.6314C7.32248 24.9862 7.14509 25.1636 7.14509 25.5183C6.96771 25.8731 6.96771 26.0505 6.79033 26.4053C6.25966 26.5812 6.25966 26.7585 6.25966 26.7585C6.25966 26.9359 6.25966 27.1133 6.08227 27.2907C6.08227 27.4681 5.90489 27.8228 5.90489 28.0002V28.8872V29.5967V30.1288C5.90489 30.3062 5.90489 30.4836 6.08227 30.661V30.8384C6.08227 31.0158 6.08227 31.0158 6.25966 31.1931V31.3705C6.25966 31.5479 6.43704 31.7253 6.43704 31.9027C6.43704 32.0801 6.43704 32.0801 6.61442 32.2574C8.03273 35.4496 11.225 37.7549 14.9491 37.7549C16.0135 37.7549 16.8997 38.6418 16.8997 39.7054C16.8997 40.7697 16.0128 41.656 14.9491 41.656C10.3386 41.656 6.25969 39.1734 3.95442 35.4491C1.82661 37.0448 0.584961 39.7047 0.584961 42.3647C0.584961 46.9745 3.95442 50.8761 8.56496 51.4083L8.56459 51.4072Z" fill="url(#paint0_linear_75_550)"/>
<path d="M86.4152 42.54C86.4152 39.1705 84.4647 35.9784 81.2727 34.56C80.3858 34.0279 79.8544 33.1417 80.3858 32.0775C80.7406 31.0132 80.9179 29.9496 80.9179 28.8853V28.7079C81.0953 26.5801 80.3858 24.6295 78.9674 23.0332C77.7257 21.7915 76.3074 20.9053 74.7118 20.3732C74.5344 20.1958 74.1796 20.1958 74.0022 20.1958C73.6475 20.1958 73.4701 20.0184 73.1153 20.0184H72.051H71.5189C66.731 20.1958 63.0067 24.0967 63.0067 28.8853C63.0067 29.9496 62.1197 30.8359 61.0561 30.8359C59.9918 30.8359 59.1056 29.9489 59.1056 28.8853C59.1056 22.5009 63.8934 17.1809 69.923 16.2948V15.4078C70.1004 7.25038 63.7161 0.866943 55.7361 0.866943C52.5439 0.866943 49.3517 1.93125 46.6917 4.05914V4.4139V23.9212C49.1743 23.0343 50.9474 20.729 50.9474 18.069C50.9474 17.0047 51.8343 16.1185 52.8979 16.1185C53.9622 16.1185 54.8484 17.0054 54.8484 18.069C54.8484 23.0343 51.3015 27.1134 46.691 27.9996V48.5709C49.1735 47.684 50.9466 45.3787 50.9466 42.7187C50.9466 41.6544 51.8335 40.7682 52.8971 40.7682C53.9614 40.7682 54.8477 41.6551 54.8477 42.7187C54.8477 47.684 51.3008 51.7631 46.6902 52.6492V73.2206C49.1728 72.3336 50.9458 70.0284 50.9458 67.3684C50.9458 66.3041 51.8328 65.4178 52.8964 65.4178C53.9607 65.4178 54.8469 66.3047 54.8469 67.3684C54.8469 72.3336 51.3 76.4127 46.6895 77.2989L46.6924 85.9891V86.3439C49.175 88.4717 52.3672 89.5361 55.7368 89.5361C63.7168 89.5361 70.1012 83.1517 70.1012 75.1717C70.1012 73.93 69.9238 72.8664 69.569 71.6248H69.2143C62.1212 71.6248 56.4465 65.7726 56.4465 58.857C56.4465 57.7927 57.3334 56.9064 58.397 56.9064C59.4613 56.9064 60.3475 57.7933 60.3475 58.857C60.3475 63.8222 64.4259 67.9013 69.3919 67.9013C69.5693 67.9013 69.9241 67.9013 70.1015 68.0787C70.2788 67.9013 70.6336 67.9013 70.811 67.724C75.2441 67.0144 78.4363 63.2909 78.4363 58.857C78.4363 57.2613 77.9041 55.6648 77.1946 54.2465C76.8398 53.7143 76.8398 53.0048 77.1946 52.4734C77.5494 51.9413 78.0815 51.4091 78.7903 51.4091C83.0459 50.8769 86.4156 46.9753 86.4156 42.5422L86.4152 42.54Z" fill="url(#paint1_linear_75_550)"/>
<defs>
<linearGradient id="paint0_linear_75_550" x1="62.1384" y1="-48.9716" x2="-99.2903" y2="25.9157" gradientUnits="userSpaceOnUse">
<stop stop-color="#00FE78"/>
<stop offset="1" stop-opacity="0"/>
</linearGradient>
<linearGradient id="paint1_linear_75_550" x1="103.668" y1="-49.0735" x2="-49.7454" y2="16.6734" gradientUnits="userSpaceOnUse">
<stop stop-color="#00FE78"/>
<stop offset="1" stop-opacity="0"/>
</linearGradient>
</defs>
</svg>
