<svg width="20" height="20" viewBox="0 0 20 20" fill="none" xmlns="http://www.w3.org/2000/svg">
<g opacity="0.5">
<g clip-path="url(#clip0_75_502)">
<path d="M5.10573 2.52429C5.10961 3.01827 4.9189 3.49393 4.57484 3.84841C4.23079 4.20289 3.76104 4.40771 3.26716 4.41858C2.77432 4.40068 2.3072 4.1941 1.96236 3.84154C1.61751 3.48899 1.42131 3.01741 1.41431 2.52429C1.43561 2.04373 1.63893 1.58927 1.98304 1.25312C2.32714 0.916983 2.78623 0.724343 3.26716 0.714294C3.74668 0.724535 4.20414 0.917658 4.54593 1.25414C4.88772 1.59061 5.08799 2.045 5.10573 2.52429ZM1.61288 7.78429C1.61288 6.69572 2.30574 6.86572 3.26716 6.86572C4.22859 6.86572 4.90716 6.69572 4.90716 7.78429V18.39C4.90716 19.4929 4.21431 19.2672 3.26716 19.2672C2.32002 19.2672 1.61288 19.4929 1.61288 18.39V7.78429ZM7.76431 7.78572C7.76431 7.17715 7.99002 6.95001 8.34288 6.88001C8.69716 6.80858 9.91288 6.88001 10.3372 6.88001C10.7614 6.88001 10.9314 7.57287 10.9172 8.09572C11.28 7.60878 11.7617 7.22305 12.3162 6.97544C12.8708 6.72783 13.4795 6.6266 14.0843 6.68144C14.6782 6.64517 15.2731 6.73424 15.8304 6.94286C16.3877 7.15147 16.8948 7.47497 17.3189 7.89234C17.743 8.3097 18.0746 8.81161 18.2921 9.36546C18.5096 9.91931 18.6082 10.5127 18.5814 11.1072V18.3472C18.5814 19.45 17.9029 19.2243 16.94 19.2243C15.9786 19.2243 15.3 19.45 15.3 18.3472V12.6914C15.3249 12.4004 15.2869 12.1074 15.1885 11.8324C15.0902 11.5573 14.9338 11.3067 14.73 11.0974C14.5261 10.8882 14.2797 10.7253 14.0073 10.6197C13.7349 10.5142 13.443 10.4685 13.1514 10.4857C12.861 10.4781 12.5722 10.5323 12.3043 10.6447C12.0363 10.7571 11.7954 10.9252 11.5973 11.1378C11.3993 11.3504 11.2487 11.6027 11.1556 11.878C11.0625 12.1532 11.0289 12.4451 11.0572 12.7343V18.39C11.0572 19.4929 10.3643 19.2672 9.40288 19.2672C8.44145 19.2672 7.76288 19.4929 7.76288 18.39V7.78429L7.76431 7.78572Z" stroke="white" stroke-linecap="round" stroke-linejoin="round"/>
</g>
</g>
<defs>
<clipPath id="clip0_75_502">
<rect width="20" height="20" fill="white"/>
</clipPath>
</defs>
</svg>
