<svg width="35" height="35" viewBox="0 0 35 35" fill="none" xmlns="http://www.w3.org/2000/svg">
<circle cx="17.5" cy="17.5" r="17.5" fill="#10271E"/>
<g clip-path="url(#clip0_75_621)">
<path fill-rule="evenodd" clip-rule="evenodd" d="M24 9C24.7956 9 25.5587 9.31607 26.1213 9.87868C26.6839 10.4413 27 11.2044 27 12V24C27 24.7956 26.6839 25.5587 26.1213 26.1213C25.5587 26.6839 24.7956 27 24 27H12C11.2044 27 10.4413 26.6839 9.87868 26.1213C9.31607 25.5587 9 24.7956 9 24V12C9 11.2044 9.31607 10.4413 9.87868 9.87868C10.4413 9.31607 11.2044 9 12 9H24ZM14 16C13.7348 16 13.4804 16.1054 13.2929 16.2929C13.1054 16.4804 13 16.7348 13 17V22C13 22.2652 13.1054 22.5196 13.2929 22.7071C13.4804 22.8946 13.7348 23 14 23C14.2652 23 14.5196 22.8946 14.7071 22.7071C14.8946 22.5196 15 22.2652 15 22V17C15 16.7348 14.8946 16.4804 14.7071 16.2929C14.5196 16.1054 14.2652 16 14 16ZM17 15C16.7348 15 16.4804 15.1054 16.2929 15.2929C16.1054 15.4804 16 15.7348 16 16V22C16 22.2652 16.1054 22.5196 16.2929 22.7071C16.4804 22.8946 16.7348 23 17 23C17.2652 23 17.5196 22.8946 17.7071 22.7071C17.8946 22.5196 18 22.2652 18 22V18.34C18.305 17.996 18.82 17.592 19.393 17.347C19.726 17.205 20.227 17.147 20.575 17.257C20.6904 17.2863 20.7933 17.3523 20.868 17.445C20.92 17.515 21 17.671 21 18V22C21 22.2652 21.1054 22.5196 21.2929 22.7071C21.4804 22.8946 21.7348 23 22 23C22.2652 23 22.5196 22.8946 22.7071 22.7071C22.8946 22.5196 23 22.2652 23 22V18C23 17.33 22.83 16.734 22.476 16.256C22.1503 15.8226 21.6944 15.5047 21.175 15.349C20.273 15.066 19.274 15.223 18.607 15.509C18.3935 15.6008 18.1854 15.705 17.984 15.821C17.9421 15.5906 17.8206 15.3822 17.6408 15.2322C17.461 15.0821 17.2342 15 17 15ZM14 13C13.7348 13 13.4804 13.1054 13.2929 13.2929C13.1054 13.4804 13 13.7348 13 14C13 14.2652 13.1054 14.5196 13.2929 14.7071C13.4804 14.8946 13.7348 15 14 15C14.2652 15 14.5196 14.8946 14.7071 14.7071C14.8946 14.5196 15 14.2652 15 14C15 13.7348 14.8946 13.4804 14.7071 13.2929C14.5196 13.1054 14.2652 13 14 13Z" fill="#12B669"/>
</g>
<defs>
<clipPath id="clip0_75_621">
<rect width="24" height="24" fill="white" transform="translate(6 6)"/>
</clipPath>
</defs>
</svg>
