<svg width="1083" height="239" viewBox="0 0 1083 239" fill="none" xmlns="http://www.w3.org/2000/svg">
<path opacity="0.1" d="M302 60H11C5.47715 60 1 64.4772 1 70V239" stroke="#F9F9F9" stroke-width="0.3"/>
<path opacity="0.1" d="M781 100H1072C1077.52 100 1082 104.477 1082 110V239" stroke="#F9F9F9" stroke-width="0.3"/>
<g opacity="0.2">
<path d="M63.4802 20.6901C62.9802 20.6901 62.6302 20.5201 62.4202 20.3601C62.0202 20.0701 61.4002 19.3201 61.7902 17.6401L62.3602 15.1801C62.4102 14.9701 62.3002 14.5901 62.1502 14.4301L60.1602 12.4401C59.1102 11.3901 59.2002 10.4801 59.3402 10.0301C59.4802 9.58006 59.9402 8.79005 61.4002 8.54005L63.9502 8.12006C64.1402 8.09006 64.4502 7.86006 64.5302 7.69006L65.9402 4.87006C66.6202 3.51006 67.5202 3.31006 68.0002 3.31006C68.4802 3.31006 69.3802 3.51006 70.0602 4.87006L71.4702 7.69006C71.5602 7.86006 71.8602 8.09006 72.0502 8.12006L74.6002 8.54005C76.0602 8.78005 76.5202 9.58006 76.6602 10.0301C76.8002 10.4801 76.8902 11.3901 75.8402 12.4401L73.8502 14.4301C73.7002 14.5801 73.5902 14.9701 73.6402 15.1801L74.2102 17.6401C74.6002 19.3301 73.9802 20.0701 73.5802 20.3601C73.1802 20.6501 72.2902 21.0201 70.7902 20.1301L68.4002 18.7101C68.2002 18.5901 67.7802 18.5901 67.5802 18.7101L65.1902 20.1301C64.5002 20.5501 63.9202 20.6901 63.4802 20.6901ZM68.0002 4.81006C67.8402 4.81006 67.5502 5.00005 67.2802 5.54005L65.8702 8.36006C65.5702 8.97006 64.8602 9.49007 64.1902 9.60007L61.6402 10.0201C61.0702 10.1201 60.8102 10.3301 60.7602 10.4901C60.7102 10.6501 60.8002 10.9701 61.2102 11.3801L63.2002 13.3701C63.7102 13.8801 63.9802 14.8101 63.8202 15.5101L63.2502 17.9701C63.0802 18.6801 63.1902 19.0601 63.3002 19.1501C63.4102 19.2301 63.8102 19.2201 64.4302 18.8401L66.8302 17.4201C67.5002 17.0201 68.5102 17.0201 69.1702 17.4201L71.5602 18.8401C72.1902 19.2101 72.5902 19.2301 72.7002 19.1501C72.8102 19.0701 72.9202 18.6901 72.7502 17.9701L72.1802 15.5101C72.0202 14.8001 72.2802 13.8801 72.8002 13.3701L74.7902 11.3801C75.2002 10.9701 75.2902 10.6401 75.2402 10.4901C75.1902 10.3401 74.9302 10.1201 74.3602 10.0201L71.8102 9.60007C71.1402 9.49007 70.4302 8.97006 70.1302 8.36006L68.7202 5.54005C68.4502 5.00005 68.1602 4.81006 68.0002 4.81006Z" fill="white"/>
<path d="M62 5.75H56C55.59 5.75 55.25 5.41 55.25 5C55.25 4.59 55.59 4.25 56 4.25H62C62.41 4.25 62.75 4.59 62.75 5C62.75 5.41 62.41 5.75 62 5.75Z" fill="white"/>
<path d="M59 19.75H56C55.59 19.75 55.25 19.41 55.25 19C55.25 18.59 55.59 18.25 56 18.25H59C59.41 18.25 59.75 18.59 59.75 19C59.75 19.41 59.41 19.75 59 19.75Z" fill="white"/>
<path d="M57 12.75H56C55.59 12.75 55.25 12.41 55.25 12C55.25 11.59 55.59 11.25 56 11.25H57C57.41 11.25 57.75 11.59 57.75 12C57.75 12.41 57.41 12.75 57 12.75Z" fill="white"/>
</g>
<g opacity="0.2">
<path d="M1038.01 201.5C1037.41 201.5 1036.48 201.21 1035.59 199.75L1033.83 196.9C1033.66 196.62 1033.14 196.35 1032.82 196.37L1029.48 196.54C1027.48 196.64 1026.78 195.81 1026.53 195.31C1026.28 194.81 1026.06 193.74 1027.36 192.22L1029.34 189.92C1029.54 189.68 1029.65 189.16 1029.56 188.86L1028.55 185.63C1028.04 184.01 1028.61 183.14 1028.99 182.76C1029.37 182.38 1030.25 181.83 1031.87 182.37L1034.82 183.34C1035.09 183.43 1035.59 183.35 1035.82 183.19L1038.9 180.97C1040.31 179.95 1041.33 180.22 1041.8 180.47C1042.27 180.72 1043.07 181.4 1043.04 183.14L1042.97 186.93C1042.96 187.21 1043.19 187.67 1043.41 187.84L1045.89 189.72C1047.24 190.75 1047.29 191.78 1047.2 192.31C1047.11 192.84 1046.71 193.8 1045.09 194.3L1041.86 195.31C1041.56 195.4 1041.19 195.79 1041.11 196.09L1040.34 199.03C1039.83 200.96 1038.83 201.39 1038.27 201.47C1038.2 201.49 1038.11 201.5 1038.01 201.5ZM1032.85 194.87C1033.71 194.87 1034.66 195.39 1035.1 196.11L1036.86 198.96C1037.36 199.78 1037.81 200.03 1038.05 199.99C1038.28 199.96 1038.64 199.58 1038.89 198.66L1039.66 195.72C1039.87 194.92 1040.62 194.13 1041.41 193.89L1044.64 192.88C1045.26 192.69 1045.66 192.38 1045.72 192.06C1045.78 191.74 1045.5 191.32 1044.98 190.92L1042.5 189.04C1041.89 188.58 1041.45 187.66 1041.46 186.9L1041.53 183.11C1041.54 182.44 1041.38 181.94 1041.09 181.79C1040.8 181.64 1040.31 181.79 1039.76 182.18L1036.68 184.4C1036.07 184.84 1035.06 185 1034.33 184.76L1031.38 183.79C1030.76 183.59 1030.26 183.6 1030.03 183.83C1029.8 184.06 1029.78 184.56 1029.97 185.18L1030.98 188.41C1031.23 189.2 1031.01 190.27 1030.47 190.89L1028.49 193.19C1027.86 193.92 1027.76 194.43 1027.87 194.64C1027.97 194.85 1028.45 195.08 1029.4 195.03L1032.74 194.86C1032.78 194.87 1032.82 194.87 1032.85 194.87Z" fill="white"/>
<path d="M1046.91 201.75C1046.72 201.75 1046.53 201.68 1046.38 201.53L1043.35 198.5C1043.06 198.21 1043.06 197.73 1043.35 197.44C1043.64 197.15 1044.12 197.15 1044.41 197.44L1047.44 200.47C1047.73 200.76 1047.73 201.24 1047.44 201.53C1047.29 201.68 1047.1 201.75 1046.91 201.75Z" fill="white"/>
</g>
<path d="M907.599 26.3852C906.854 25.9755 906.206 25.3683 905.827 24.6686L902.446 18.3235C901.817 17.1441 901.823 15.7434 902.469 14.5694C903.115 13.3953 904.294 12.6406 905.628 12.5408L912.8 12.0128C914.394 11.8964 916.225 12.9038 916.966 14.3159L920.32 20.6464C920.941 21.8211 920.935 23.2217 920.294 24.387C919.653 25.5523 918.473 26.3071 917.148 26.4116L910.006 26.9677C909.207 27.0303 908.352 26.7998 907.599 26.3852ZM914.467 13.8999C913.968 13.6251 913.406 13.4643 912.912 13.512L905.748 14.0449C904.912 14.1105 904.197 14.5612 903.792 15.2972C903.387 16.0332 903.381 16.8744 903.781 17.6196L907.161 23.9646C907.628 24.8378 908.907 25.5416 909.895 25.4685L917.037 24.9124C917.872 24.8468 918.58 24.3912 918.984 23.6552C919.389 22.9193 919.396 22.0781 919.004 21.3376L915.65 15.0071C915.407 14.5768 914.975 14.1794 914.467 13.8999Z" fill="#292D32"/>
<path d="M904.818 31.4185C904.433 31.2064 904.067 30.9369 903.81 30.6582L901.526 28.1919C900.444 27.026 900.197 25.0067 900.972 23.6184L903.241 19.514C903.439 19.1548 903.9 19.0208 904.26 19.2184C904.619 19.416 904.753 19.8778 904.555 20.237L902.286 24.3414C901.833 25.165 901.996 26.4873 902.631 27.1791L904.915 29.6454C905.203 29.9521 905.851 30.3088 906.264 30.3877L909.57 30.9966C910.495 31.1627 911.698 30.5924 912.147 29.7776L914.383 25.7122C914.581 25.353 915.043 25.219 915.402 25.4166C915.761 25.6142 915.895 26.076 915.698 26.4352L913.461 30.5006C912.695 31.8937 910.87 32.7619 909.301 32.4809L905.996 31.872C905.627 31.7949 905.204 31.6305 904.818 31.4185Z" fill="#292D32"/>
<path d="M916.428 29.8161C916.069 29.6184 915.935 29.1567 916.133 28.7974L919.025 23.5404C919.222 23.1812 919.684 23.0472 920.043 23.2448C920.403 23.4424 920.537 23.9042 920.339 24.2634L917.447 29.5204C917.249 29.8797 916.788 30.0137 916.428 29.8161Z" fill="#292D32"/>
<path d="M187.599 196.385C186.854 195.976 186.206 195.368 185.827 194.669L182.446 188.324C181.817 187.144 181.823 185.743 182.469 184.569C183.115 183.395 184.294 182.641 185.628 182.541L192.8 182.013C194.394 181.896 196.225 182.904 196.966 184.316L200.32 190.646C200.941 191.821 200.935 193.222 200.294 194.387C199.653 195.552 198.473 196.307 197.148 196.412L190.006 196.968C189.207 197.03 188.352 196.8 187.599 196.385ZM194.467 183.9C193.968 183.625 193.406 183.464 192.912 183.512L185.748 184.045C184.912 184.11 184.197 184.561 183.792 185.297C183.387 186.033 183.381 186.874 183.781 187.62L187.161 193.965C187.628 194.838 188.907 195.542 189.895 195.469L197.037 194.912C197.872 194.847 198.58 194.391 198.984 193.655C199.389 192.919 199.396 192.078 199.004 191.338L195.65 185.007C195.407 184.577 194.975 184.179 194.467 183.9Z" fill="#292D32"/>
<path d="M184.818 201.418C184.433 201.206 184.067 200.937 183.81 200.658L181.526 198.192C180.444 197.026 180.197 195.007 180.972 193.618L183.241 189.514C183.439 189.155 183.9 189.021 184.26 189.218C184.619 189.416 184.753 189.878 184.555 190.237L182.286 194.341C181.833 195.165 181.996 196.487 182.631 197.179L184.915 199.645C185.203 199.952 185.851 200.309 186.264 200.388L189.57 200.997C190.495 201.163 191.698 200.592 192.147 199.778L194.383 195.712C194.581 195.353 195.043 195.219 195.402 195.417C195.761 195.614 195.895 196.076 195.698 196.435L193.461 200.501C192.695 201.894 190.87 202.762 189.301 202.481L185.996 201.872C185.627 201.795 185.204 201.631 184.818 201.418Z" fill="#292D32"/>
<path d="M196.428 199.816C196.069 199.618 195.935 199.157 196.133 198.797L199.025 193.54C199.222 193.181 199.684 193.047 200.043 193.245C200.403 193.442 200.537 193.904 200.339 194.263L197.447 199.52C197.249 199.88 196.788 200.014 196.428 199.816Z" fill="#292D32"/>
</svg>
