<svg width="64" height="64" viewBox="0 0 64 64" fill="none" xmlns="http://www.w3.org/2000/svg">
<path opacity="0.4" d="M43.8914 37.4718L40.792 47.2353C39.9936 49.7505 37.1779 51.8215 34.5697 51.8655L27.5857 51.9592C26.3572 51.9835 24.5551 51.4113 23.5853 50.6893L17.9341 46.5845C15.809 45.0379 14.7232 41.7284 15.5217 39.2133L18.6409 29.456L25.5838 37.9384C27.2763 40.0235 30.8015 41.1426 33.3867 40.4155L43.8914 37.4718Z" fill="#12B669"/>
<path d="M51.0715 25.8427L41.6794 14.2937C39.9869 12.2086 36.4617 11.0896 33.8765 11.8167L19.4835 15.8151C14.8754 17.0773 13.0962 22.6819 16.1263 26.3906L18.6412 29.4562L25.5841 37.9386C27.2766 40.0237 30.8018 41.1428 33.387 40.4157L43.8917 37.4719L47.1708 36.5509L45.247 42.611C44.9892 43.423 45.4488 44.3101 46.2608 44.5678C47.0728 44.8256 47.9599 44.366 48.2176 43.554L51.3108 33.8103C52.9139 31.507 53.045 28.2786 51.0715 25.8427Z" fill="#12B669"/>
</svg>
