<svg width="34" height="34" viewBox="0 0 34 34" fill="none" xmlns="http://www.w3.org/2000/svg">
<circle opacity="0.1" cx="17" cy="17" r="17" fill="white"/>
<path opacity="0.4" d="M11.9462 25.6304C13.4362 26.5004 15.1662 27.0005 17.0062 27.0005C22.6362 27.0005 27.3161 22.0305 26.9861 16.4105C26.6461 10.6105 21.3761 6.14045 15.3061 7.14045C11.1261 7.83045 7.77615 11.2205 7.12615 15.4005C6.74615 17.8205 7.24617 20.1104 8.33617 22.0005L7.44616 25.3104C7.24616 26.0604 7.93614 26.7404 8.67614 26.5304L11.9462 25.6304Z" fill="white"/>
<path d="M22.0061 20.1705C22.0061 20.3505 21.9661 20.5405 21.8761 20.7205C21.7861 20.9005 21.6761 21.0705 21.5361 21.2305C21.2861 21.5005 21.0161 21.7005 20.7161 21.8205C20.4161 21.9505 20.0861 22.0105 19.7361 22.0105C19.2261 22.0105 18.6761 21.8905 18.1061 21.6405C17.5261 21.3905 16.9561 21.0605 16.3861 20.6505C15.8061 20.2305 15.2661 19.7605 14.7461 19.2505C14.2261 18.7305 13.7661 18.1805 13.3461 17.6105C12.9361 17.0405 12.6061 16.4705 12.3661 15.9005C12.1261 15.3305 12.0061 14.7805 12.0061 14.2605C12.0061 13.9205 12.0661 13.5905 12.1861 13.2905C12.3061 12.9805 12.4961 12.7005 12.7661 12.4505C13.0861 12.1305 13.4361 11.9805 13.8061 11.9805C13.9461 11.9805 14.0861 12.0105 14.2161 12.0705C14.3461 12.1305 14.4661 12.2205 14.5561 12.3505L15.7061 14.0005C15.7961 14.1305 15.8661 14.2405 15.9061 14.3505C15.9561 14.4605 15.9761 14.5605 15.9761 14.6605C15.9761 14.7805 15.9361 14.9005 15.8661 15.0205C15.7961 15.1405 15.7061 15.2605 15.5861 15.3805L15.2061 15.7805C15.1461 15.8405 15.1261 15.9005 15.1261 15.9805C15.1261 16.0205 15.1361 16.0605 15.1461 16.1005C15.1661 16.1405 15.1761 16.1705 15.1861 16.2005C15.2761 16.3705 15.4361 16.5805 15.6561 16.8405C15.8861 17.1005 16.1261 17.3705 16.3861 17.6305C16.6561 17.9005 16.9161 18.1405 17.1861 18.3705C17.4461 18.5905 17.6661 18.7405 17.8361 18.8305C17.8661 18.8405 17.8961 18.8605 17.9261 18.8705C17.9661 18.8905 18.0061 18.8905 18.0561 18.8905C18.1461 18.8905 18.2061 18.8605 18.2661 18.8005L18.6461 18.4205C18.7761 18.2905 18.8961 18.2005 19.0061 18.1405C19.1261 18.0705 19.2361 18.0305 19.3661 18.0305C19.4661 18.0305 19.5661 18.0505 19.6761 18.1005C19.7861 18.1505 19.9061 18.2105 20.0261 18.3005L21.6861 19.4805C21.8161 19.5705 21.9061 19.6805 21.9661 19.8005C21.9761 19.9105 22.0061 20.0305 22.0061 20.1705Z" fill="white"/>
</svg>
