<svg width="337" height="293" viewBox="0 0 337 293" fill="none" xmlns="http://www.w3.org/2000/svg">
<g opacity="0.2" clip-path="url(#clip0_2006_107)">
<path d="M283.241 25.157L283.085 25.1311C277.733 24.2667 272.388 25.5268 268.034 28.6784C263.685 31.8262 260.823 36.5032 259.973 41.8466C259.161 46.9206 260.312 52.0659 263.215 56.3358C265.485 59.6311 266.708 63.6997 266.657 67.7883C266.624 69.135 267.62 70.3175 268.976 70.5473L272.075 71.0722C272.605 70.5418 273.617 68.1182 272.454 57.1317C271.752 50.4943 270.589 44.005 270.577 43.94C270.515 43.5931 270.745 43.2611 271.092 43.1991C271.439 43.1365 271.771 43.3672 271.833 43.7141C271.845 43.7791 273.016 50.3091 273.723 56.9917C274.689 66.1167 274.214 69.7653 273.441 71.3042L277.241 71.9478C277.019 70.2412 277.774 66.6406 281.69 58.3419C284.557 52.2648 287.811 46.4843 287.843 46.4268C288.016 46.1198 288.405 46.0111 288.712 46.1845C289.019 46.3579 289.128 46.7467 288.954 47.0538C288.922 47.1113 285.689 52.8559 282.841 58.8918C278.128 68.8801 278.28 71.5027 278.605 72.179L281.692 72.7019C283.064 72.9343 284.377 72.1534 284.814 70.8455C286.095 66.9583 288.508 63.6173 291.793 61.1868C296.018 58.0809 298.826 53.5272 299.701 48.3626C301.556 37.4186 294.171 27.0089 283.242 25.1573L283.241 25.157ZM293.978 46.7699C293.63 46.7109 293.396 46.3818 293.455 46.034C293.976 42.9579 293.264 39.8682 291.449 37.3327C289.64 34.8057 286.954 33.141 283.888 32.6442L283.884 32.6434C283.538 32.5849 283.304 32.2586 283.36 31.912C283.416 31.5638 283.744 31.3274 284.092 31.3841C284.124 31.3894 284.156 31.3943 284.187 31.3996C287.553 31.9698 290.497 33.81 292.487 36.5895C294.501 39.4032 295.291 42.8327 294.713 46.2465C294.655 46.595 294.325 46.8288 293.978 46.7699L293.978 46.7699Z" fill="#016027"/>
<path d="M268.266 82.9626C268.357 83.9288 269.085 84.7163 270.036 84.8774L275.973 85.8832C276.939 86.0467 277.868 85.5528 278.288 84.6547L278.909 83.312L268.128 81.4857L268.266 82.9626Z" fill="#016027"/>
<path d="M282.099 75.0035L267.825 72.5854C266.881 72.4255 265.983 73.0641 265.823 74.008L265.412 76.4375C265.14 78.0409 266.051 79.5733 267.58 80.0981L279.887 82.1829C281.465 82.1965 282.85 81.0312 283.117 79.4564L283.528 77.0269C283.69 76.0712 283.062 75.1822 282.099 75.0035Z" fill="#016027"/>
<path d="M283.923 20.6484C284.271 20.7073 284.6 20.4735 284.659 20.1257L285.869 12.983C285.928 12.6352 285.694 12.306 285.347 12.2471C284.999 12.1882 284.67 12.422 284.611 12.7698L283.401 19.9125C283.342 20.2597 283.576 20.5894 283.923 20.6484Z" fill="#016027"/>
<path d="M297.153 26.7133C297.243 26.7874 297.346 26.8332 297.454 26.8514C297.671 26.8882 297.901 26.8111 298.052 26.6297L302.676 21.0531C302.9 20.7819 302.863 20.3791 302.592 20.1545C302.32 19.9299 301.918 19.9669 301.693 20.2387L297.07 25.8154C296.845 26.0859 296.882 26.4882 297.153 26.7133L297.153 26.7133Z" fill="#016027"/>
<path d="M313.574 35.6145C313.451 35.2844 313.083 35.1163 312.753 35.239L305.966 37.7673C305.636 37.8906 305.468 38.258 305.59 38.588C305.673 38.8095 305.865 38.9577 306.083 38.9945C306.189 39.0126 306.302 39.0035 306.412 38.963L313.199 36.4347C313.529 36.312 313.697 35.9445 313.574 35.6145L313.574 35.6145Z" fill="#016027"/>
<path d="M314.836 53.7655L307.694 52.5557C307.346 52.4968 307.017 52.7306 306.958 53.0784C306.899 53.4262 307.133 53.7553 307.481 53.8142L314.623 55.024C314.97 55.0829 315.3 54.8491 315.358 54.5014C315.417 54.1536 315.183 53.8243 314.836 53.7655Z" fill="#016027"/>
<path d="M252.039 57.8081L245.253 60.3258C244.923 60.4484 244.754 60.8158 244.877 61.1463C244.959 61.3683 245.151 61.5171 245.369 61.5539C245.476 61.572 245.588 61.5633 245.697 61.5229L252.482 59.0051C252.813 58.8825 252.982 58.5152 252.859 58.1846C252.736 57.854 252.37 57.6856 252.039 57.8082L252.039 57.8081Z" fill="#016027"/>
<path d="M251.493 43.6832C251.552 43.3354 251.318 43.0063 250.97 42.9473L243.828 41.7375C243.48 41.6785 243.151 41.9123 243.092 42.2601C243.033 42.6079 243.267 42.9371 243.615 42.996L250.757 44.2058C251.104 44.2647 251.434 44.031 251.493 43.6832L251.493 43.6832Z" fill="#016027"/>
<path d="M257.473 29.5526L251.898 24.9299C251.626 24.7053 251.224 24.7424 250.999 25.0141C250.774 25.2852 250.811 25.688 251.083 25.9127L256.659 30.5353C256.749 30.6095 256.852 30.6553 256.959 30.6735C257.177 30.7103 257.407 30.6332 257.558 30.4518C257.782 30.1806 257.744 29.7777 257.473 29.5526L257.473 29.5526Z" fill="#016027"/>
<path d="M268.602 21.6383C268.684 21.8602 268.876 22.009 269.094 22.0459C269.201 22.064 269.313 22.0553 269.422 22.0148C269.753 21.8922 269.921 21.5249 269.798 21.1942L267.28 14.4077C267.157 14.0772 266.79 13.9086 266.46 14.0312C266.129 14.1538 265.96 14.5211 266.083 14.8517L268.602 21.6383Z" fill="#016027"/>
</g>
<path d="M47.212 91.2L38.016 122H30.58L23.98 100L17.38 122H9.944L0.748 91.2H7.128L13.75 114.828L20.636 91.2H27.434L34.32 114.828L40.942 91.2H47.212ZM56.7091 90.298V102.97C58.2271 100.858 60.4931 100.11 62.8251 100.11C67.6651 100.11 71.1191 103.476 71.1191 108.426V122H65.3771V110.274C65.3771 107.194 63.8371 105.5 61.2191 105.5C58.7551 105.5 56.7091 107.106 56.7091 110.318V122H50.9671V90.298H56.7091ZM97.7508 100.682L81.4488 130.888H75.1568L82.6148 117.468L73.4188 100.682H79.9308L85.7828 111.638L91.4588 100.682H97.7508ZM139.108 91.2V122H133.344L117.724 101.43L117.702 122H111.564V91.2H117.306L132.948 111.77V91.2H139.108ZM155.813 100.11C162.457 100.11 167.363 104.906 167.363 111.33C167.363 117.754 162.457 122.55 155.813 122.55C149.191 122.55 144.307 117.754 144.307 111.33C144.307 104.906 149.191 100.11 155.813 100.11ZM155.813 105.456C152.579 105.456 150.159 107.876 150.159 111.33C150.159 114.784 152.579 117.204 155.813 117.204C159.047 117.204 161.489 114.784 161.489 111.33C161.489 107.876 159.047 105.456 155.813 105.456ZM181.051 100.11C183.911 100.11 185.935 101.232 187.321 102.904V90.32H193.041V122H187.431V119.646C186.045 121.362 183.977 122.55 181.051 122.55C175.177 122.55 170.733 117.732 170.733 111.33C170.733 104.928 175.177 100.11 181.051 100.11ZM182.107 105.456C178.741 105.456 176.607 108.074 176.607 111.33C176.607 114.586 178.741 117.204 182.107 117.204C185.385 117.204 187.607 114.696 187.607 111.33C187.607 107.964 185.385 105.456 182.107 105.456ZM208.54 100.11C214.678 100.11 218.88 104.664 218.902 111.308C218.902 111.968 218.858 112.76 218.792 113.244H203.678C204.294 116.324 206.45 117.666 209.156 117.666C211.004 117.666 213.006 116.918 214.546 115.62L217.912 119.316C215.492 121.538 212.412 122.55 208.826 122.55C202.292 122.55 197.76 118.106 197.76 111.396C197.76 104.686 202.16 100.11 208.54 100.11ZM208.496 105.06C205.79 105.06 204.206 106.688 203.7 109.328H213.138C212.61 106.6 210.96 105.06 208.496 105.06ZM240.274 100.682V124.024C240.274 128.688 237.59 131.262 233.652 131.262C232.618 131.262 231.232 131.042 230.418 130.69L231.276 125.652C231.76 125.828 232.266 125.916 232.816 125.916C233.784 125.916 234.532 125.322 234.532 123.694V100.682H240.274ZM237.348 90.012C239.416 90.012 241.022 91.64 241.022 93.708C241.022 95.776 239.416 97.36 237.348 97.36C235.28 97.36 233.696 95.776 233.696 93.708C233.696 91.64 235.28 90.012 237.348 90.012ZM263.529 102.156L261.593 106.622C259.899 105.786 257.193 104.906 254.795 104.884C252.617 104.884 251.517 105.654 251.517 106.82C251.517 108.052 253.057 108.36 254.993 108.646L256.885 108.932C261.505 109.636 264.079 111.704 264.079 115.312C264.079 119.712 260.471 122.55 254.289 122.55C251.385 122.55 247.579 122 244.807 120.042L247.073 115.686C248.899 116.896 251.121 117.776 254.333 117.776C256.995 117.776 258.271 117.028 258.271 115.774C258.271 114.74 257.193 114.168 254.729 113.816L252.991 113.574C248.063 112.892 245.621 110.736 245.621 107.106C245.621 102.728 249.009 100.132 254.619 100.132C258.029 100.132 260.691 100.77 263.529 102.156ZM274.676 111.484H269.374V104.004H271.486C275.732 104.004 278.02 102.662 278.02 100.088C278.02 97.712 275.754 96.436 271.552 96.436C270.364 96.436 269.132 96.524 268.208 96.612L267.79 90.826C269.022 90.65 270.738 90.54 272.234 90.54C279.912 90.54 284.356 94.082 284.356 99.648C284.356 104.73 280.968 107.986 274.852 108.954L274.676 111.484ZM272.036 114.168C274.258 114.168 276.194 116.082 276.194 118.326C276.194 120.592 274.258 122.55 272.036 122.55C269.792 122.55 267.834 120.592 267.834 118.348C267.834 116.082 269.792 114.168 272.036 114.168Z" fill="url(#paint0_linear_2006_107)"/>
<path d="M47.212 131.2L38.016 162H30.58L23.98 140L17.38 162H9.944L0.748 131.2H7.128L13.75 154.828L20.636 131.2H27.434L34.32 154.828L40.942 131.2H47.212ZM56.7091 130.298V142.97C58.2271 140.858 60.4931 140.11 62.8251 140.11C67.6651 140.11 71.1191 143.476 71.1191 148.426V162H65.3771V150.274C65.3771 147.194 63.8371 145.5 61.2191 145.5C58.7551 145.5 56.7091 147.106 56.7091 150.318V162H50.9671V130.298H56.7091ZM97.7508 140.682L81.4488 170.888H75.1568L82.6148 157.468L73.4188 140.682H79.9308L85.7828 151.638L91.4588 140.682H97.7508ZM139.108 131.2V162H133.344L117.724 141.43L117.702 162H111.564V131.2H117.306L132.948 151.77V131.2H139.108ZM155.813 140.11C162.457 140.11 167.363 144.906 167.363 151.33C167.363 157.754 162.457 162.55 155.813 162.55C149.191 162.55 144.307 157.754 144.307 151.33C144.307 144.906 149.191 140.11 155.813 140.11ZM155.813 145.456C152.579 145.456 150.159 147.876 150.159 151.33C150.159 154.784 152.579 157.204 155.813 157.204C159.047 157.204 161.489 154.784 161.489 151.33C161.489 147.876 159.047 145.456 155.813 145.456ZM181.051 140.11C183.911 140.11 185.935 141.232 187.321 142.904V130.32H193.041V162H187.431V159.646C186.045 161.362 183.977 162.55 181.051 162.55C175.177 162.55 170.733 157.732 170.733 151.33C170.733 144.928 175.177 140.11 181.051 140.11ZM182.107 145.456C178.741 145.456 176.607 148.074 176.607 151.33C176.607 154.586 178.741 157.204 182.107 157.204C185.385 157.204 187.607 154.696 187.607 151.33C187.607 147.964 185.385 145.456 182.107 145.456ZM208.54 140.11C214.678 140.11 218.88 144.664 218.902 151.308C218.902 151.968 218.858 152.76 218.792 153.244H203.678C204.294 156.324 206.45 157.666 209.156 157.666C211.004 157.666 213.006 156.918 214.546 155.62L217.912 159.316C215.492 161.538 212.412 162.55 208.826 162.55C202.292 162.55 197.76 158.106 197.76 151.396C197.76 144.686 202.16 140.11 208.54 140.11ZM208.496 145.06C205.79 145.06 204.206 146.688 203.7 149.328H213.138C212.61 146.6 210.96 145.06 208.496 145.06ZM240.274 140.682V164.024C240.274 168.688 237.59 171.262 233.652 171.262C232.618 171.262 231.232 171.042 230.418 170.69L231.276 165.652C231.76 165.828 232.266 165.916 232.816 165.916C233.784 165.916 234.532 165.322 234.532 163.694V140.682H240.274ZM237.348 130.012C239.416 130.012 241.022 131.64 241.022 133.708C241.022 135.776 239.416 137.36 237.348 137.36C235.28 137.36 233.696 135.776 233.696 133.708C233.696 131.64 235.28 130.012 237.348 130.012ZM263.529 142.156L261.593 146.622C259.899 145.786 257.193 144.906 254.795 144.884C252.617 144.884 251.517 145.654 251.517 146.82C251.517 148.052 253.057 148.36 254.993 148.646L256.885 148.932C261.505 149.636 264.079 151.704 264.079 155.312C264.079 159.712 260.471 162.55 254.289 162.55C251.385 162.55 247.579 162 244.807 160.042L247.073 155.686C248.899 156.896 251.121 157.776 254.333 157.776C256.995 157.776 258.271 157.028 258.271 155.774C258.271 154.74 257.193 154.168 254.729 153.816L252.991 153.574C248.063 152.892 245.621 150.736 245.621 147.106C245.621 142.728 249.009 140.132 254.619 140.132C258.029 140.132 260.691 140.77 263.529 142.156ZM274.676 151.484H269.374V144.004H271.486C275.732 144.004 278.02 142.662 278.02 140.088C278.02 137.712 275.754 136.436 271.552 136.436C270.364 136.436 269.132 136.524 268.208 136.612L267.79 130.826C269.022 130.65 270.738 130.54 272.234 130.54C279.912 130.54 284.356 134.082 284.356 139.648C284.356 144.73 280.968 147.986 274.852 148.954L274.676 151.484ZM272.036 154.168C274.258 154.168 276.194 156.082 276.194 158.326C276.194 160.592 274.258 162.55 272.036 162.55C269.792 162.55 267.834 160.592 267.834 158.348C267.834 156.082 269.792 154.168 272.036 154.168Z" fill="url(#paint1_linear_2006_107)"/>
<path d="M47.212 171.2L38.016 202H30.58L23.98 180L17.38 202H9.944L0.748 171.2H7.128L13.75 194.828L20.636 171.2H27.434L34.32 194.828L40.942 171.2H47.212ZM56.7091 170.298V182.97C58.2271 180.858 60.4931 180.11 62.8251 180.11C67.6651 180.11 71.1191 183.476 71.1191 188.426V202H65.3771V190.274C65.3771 187.194 63.8371 185.5 61.2191 185.5C58.7551 185.5 56.7091 187.106 56.7091 190.318V202H50.9671V170.298H56.7091ZM97.7508 180.682L81.4488 210.888H75.1568L82.6148 197.468L73.4188 180.682H79.9308L85.7828 191.638L91.4588 180.682H97.7508ZM139.108 171.2V202H133.344L117.724 181.43L117.702 202H111.564V171.2H117.306L132.948 191.77V171.2H139.108ZM155.813 180.11C162.457 180.11 167.363 184.906 167.363 191.33C167.363 197.754 162.457 202.55 155.813 202.55C149.191 202.55 144.307 197.754 144.307 191.33C144.307 184.906 149.191 180.11 155.813 180.11ZM155.813 185.456C152.579 185.456 150.159 187.876 150.159 191.33C150.159 194.784 152.579 197.204 155.813 197.204C159.047 197.204 161.489 194.784 161.489 191.33C161.489 187.876 159.047 185.456 155.813 185.456ZM181.051 180.11C183.911 180.11 185.935 181.232 187.321 182.904V170.32H193.041V202H187.431V199.646C186.045 201.362 183.977 202.55 181.051 202.55C175.177 202.55 170.733 197.732 170.733 191.33C170.733 184.928 175.177 180.11 181.051 180.11ZM182.107 185.456C178.741 185.456 176.607 188.074 176.607 191.33C176.607 194.586 178.741 197.204 182.107 197.204C185.385 197.204 187.607 194.696 187.607 191.33C187.607 187.964 185.385 185.456 182.107 185.456ZM208.54 180.11C214.678 180.11 218.88 184.664 218.902 191.308C218.902 191.968 218.858 192.76 218.792 193.244H203.678C204.294 196.324 206.45 197.666 209.156 197.666C211.004 197.666 213.006 196.918 214.546 195.62L217.912 199.316C215.492 201.538 212.412 202.55 208.826 202.55C202.292 202.55 197.76 198.106 197.76 191.396C197.76 184.686 202.16 180.11 208.54 180.11ZM208.496 185.06C205.79 185.06 204.206 186.688 203.7 189.328H213.138C212.61 186.6 210.96 185.06 208.496 185.06ZM240.274 180.682V204.024C240.274 208.688 237.59 211.262 233.652 211.262C232.618 211.262 231.232 211.042 230.418 210.69L231.276 205.652C231.76 205.828 232.266 205.916 232.816 205.916C233.784 205.916 234.532 205.322 234.532 203.694V180.682H240.274ZM237.348 170.012C239.416 170.012 241.022 171.64 241.022 173.708C241.022 175.776 239.416 177.36 237.348 177.36C235.28 177.36 233.696 175.776 233.696 173.708C233.696 171.64 235.28 170.012 237.348 170.012ZM263.529 182.156L261.593 186.622C259.899 185.786 257.193 184.906 254.795 184.884C252.617 184.884 251.517 185.654 251.517 186.82C251.517 188.052 253.057 188.36 254.993 188.646L256.885 188.932C261.505 189.636 264.079 191.704 264.079 195.312C264.079 199.712 260.471 202.55 254.289 202.55C251.385 202.55 247.579 202 244.807 200.042L247.073 195.686C248.899 196.896 251.121 197.776 254.333 197.776C256.995 197.776 258.271 197.028 258.271 195.774C258.271 194.74 257.193 194.168 254.729 193.816L252.991 193.574C248.063 192.892 245.621 190.736 245.621 187.106C245.621 182.728 249.009 180.132 254.619 180.132C258.029 180.132 260.691 180.77 263.529 182.156ZM274.676 191.484H269.374V184.004H271.486C275.732 184.004 278.02 182.662 278.02 180.088C278.02 177.712 275.754 176.436 271.552 176.436C270.364 176.436 269.132 176.524 268.208 176.612L267.79 170.826C269.022 170.65 270.738 170.54 272.234 170.54C279.912 170.54 284.356 174.082 284.356 179.648C284.356 184.73 280.968 187.986 274.852 188.954L274.676 191.484ZM272.036 194.168C274.258 194.168 276.194 196.082 276.194 198.326C276.194 200.592 274.258 202.55 272.036 202.55C269.792 202.55 267.834 200.592 267.834 198.348C267.834 196.082 269.792 194.168 272.036 194.168Z" fill="url(#paint2_linear_2006_107)"/>
<path d="M47.212 211.2L38.016 242H30.58L23.98 220L17.38 242H9.944L0.748 211.2H7.128L13.75 234.828L20.636 211.2H27.434L34.32 234.828L40.942 211.2H47.212ZM56.7091 210.298V222.97C58.2271 220.858 60.4931 220.11 62.8251 220.11C67.6651 220.11 71.1191 223.476 71.1191 228.426V242H65.3771V230.274C65.3771 227.194 63.8371 225.5 61.2191 225.5C58.7551 225.5 56.7091 227.106 56.7091 230.318V242H50.9671V210.298H56.7091ZM97.7508 220.682L81.4488 250.888H75.1568L82.6148 237.468L73.4188 220.682H79.9308L85.7828 231.638L91.4588 220.682H97.7508ZM139.108 211.2V242H133.344L117.724 221.43L117.702 242H111.564V211.2H117.306L132.948 231.77V211.2H139.108ZM155.813 220.11C162.457 220.11 167.363 224.906 167.363 231.33C167.363 237.754 162.457 242.55 155.813 242.55C149.191 242.55 144.307 237.754 144.307 231.33C144.307 224.906 149.191 220.11 155.813 220.11ZM155.813 225.456C152.579 225.456 150.159 227.876 150.159 231.33C150.159 234.784 152.579 237.204 155.813 237.204C159.047 237.204 161.489 234.784 161.489 231.33C161.489 227.876 159.047 225.456 155.813 225.456ZM181.051 220.11C183.911 220.11 185.935 221.232 187.321 222.904V210.32H193.041V242H187.431V239.646C186.045 241.362 183.977 242.55 181.051 242.55C175.177 242.55 170.733 237.732 170.733 231.33C170.733 224.928 175.177 220.11 181.051 220.11ZM182.107 225.456C178.741 225.456 176.607 228.074 176.607 231.33C176.607 234.586 178.741 237.204 182.107 237.204C185.385 237.204 187.607 234.696 187.607 231.33C187.607 227.964 185.385 225.456 182.107 225.456ZM208.54 220.11C214.678 220.11 218.88 224.664 218.902 231.308C218.902 231.968 218.858 232.76 218.792 233.244H203.678C204.294 236.324 206.45 237.666 209.156 237.666C211.004 237.666 213.006 236.918 214.546 235.62L217.912 239.316C215.492 241.538 212.412 242.55 208.826 242.55C202.292 242.55 197.76 238.106 197.76 231.396C197.76 224.686 202.16 220.11 208.54 220.11ZM208.496 225.06C205.79 225.06 204.206 226.688 203.7 229.328H213.138C212.61 226.6 210.96 225.06 208.496 225.06ZM240.274 220.682V244.024C240.274 248.688 237.59 251.262 233.652 251.262C232.618 251.262 231.232 251.042 230.418 250.69L231.276 245.652C231.76 245.828 232.266 245.916 232.816 245.916C233.784 245.916 234.532 245.322 234.532 243.694V220.682H240.274ZM237.348 210.012C239.416 210.012 241.022 211.64 241.022 213.708C241.022 215.776 239.416 217.36 237.348 217.36C235.28 217.36 233.696 215.776 233.696 213.708C233.696 211.64 235.28 210.012 237.348 210.012ZM263.529 222.156L261.593 226.622C259.899 225.786 257.193 224.906 254.795 224.884C252.617 224.884 251.517 225.654 251.517 226.82C251.517 228.052 253.057 228.36 254.993 228.646L256.885 228.932C261.505 229.636 264.079 231.704 264.079 235.312C264.079 239.712 260.471 242.55 254.289 242.55C251.385 242.55 247.579 242 244.807 240.042L247.073 235.686C248.899 236.896 251.121 237.776 254.333 237.776C256.995 237.776 258.271 237.028 258.271 235.774C258.271 234.74 257.193 234.168 254.729 233.816L252.991 233.574C248.063 232.892 245.621 230.736 245.621 227.106C245.621 222.728 249.009 220.132 254.619 220.132C258.029 220.132 260.691 220.77 263.529 222.156ZM274.676 231.484H269.374V224.004H271.486C275.732 224.004 278.02 222.662 278.02 220.088C278.02 217.712 275.754 216.436 271.552 216.436C270.364 216.436 269.132 216.524 268.208 216.612L267.79 210.826C269.022 210.65 270.738 210.54 272.234 210.54C279.912 210.54 284.356 214.082 284.356 219.648C284.356 224.73 280.968 227.986 274.852 228.954L274.676 231.484ZM272.036 234.168C274.258 234.168 276.194 236.082 276.194 238.326C276.194 240.592 274.258 242.55 272.036 242.55C269.792 242.55 267.834 240.592 267.834 238.348C267.834 236.082 269.792 234.168 272.036 234.168Z" fill="url(#paint3_linear_2006_107)"/>
<path d="M47.212 251.2L38.016 282H30.58L23.98 260L17.38 282H9.944L0.748 251.2H7.128L13.75 274.828L20.636 251.2H27.434L34.32 274.828L40.942 251.2H47.212ZM56.7091 250.298V262.97C58.2271 260.858 60.4931 260.11 62.8251 260.11C67.6651 260.11 71.1191 263.476 71.1191 268.426V282H65.3771V270.274C65.3771 267.194 63.8371 265.5 61.2191 265.5C58.7551 265.5 56.7091 267.106 56.7091 270.318V282H50.9671V250.298H56.7091ZM97.7508 260.682L81.4488 290.888H75.1568L82.6148 277.468L73.4188 260.682H79.9308L85.7828 271.638L91.4588 260.682H97.7508ZM139.108 251.2V282H133.344L117.724 261.43L117.702 282H111.564V251.2H117.306L132.948 271.77V251.2H139.108ZM155.813 260.11C162.457 260.11 167.363 264.906 167.363 271.33C167.363 277.754 162.457 282.55 155.813 282.55C149.191 282.55 144.307 277.754 144.307 271.33C144.307 264.906 149.191 260.11 155.813 260.11ZM155.813 265.456C152.579 265.456 150.159 267.876 150.159 271.33C150.159 274.784 152.579 277.204 155.813 277.204C159.047 277.204 161.489 274.784 161.489 271.33C161.489 267.876 159.047 265.456 155.813 265.456ZM181.051 260.11C183.911 260.11 185.935 261.232 187.321 262.904V250.32H193.041V282H187.431V279.646C186.045 281.362 183.977 282.55 181.051 282.55C175.177 282.55 170.733 277.732 170.733 271.33C170.733 264.928 175.177 260.11 181.051 260.11ZM182.107 265.456C178.741 265.456 176.607 268.074 176.607 271.33C176.607 274.586 178.741 277.204 182.107 277.204C185.385 277.204 187.607 274.696 187.607 271.33C187.607 267.964 185.385 265.456 182.107 265.456ZM208.54 260.11C214.678 260.11 218.88 264.664 218.902 271.308C218.902 271.968 218.858 272.76 218.792 273.244H203.678C204.294 276.324 206.45 277.666 209.156 277.666C211.004 277.666 213.006 276.918 214.546 275.62L217.912 279.316C215.492 281.538 212.412 282.55 208.826 282.55C202.292 282.55 197.76 278.106 197.76 271.396C197.76 264.686 202.16 260.11 208.54 260.11ZM208.496 265.06C205.79 265.06 204.206 266.688 203.7 269.328H213.138C212.61 266.6 210.96 265.06 208.496 265.06ZM240.274 260.682V284.024C240.274 288.688 237.59 291.262 233.652 291.262C232.618 291.262 231.232 291.042 230.418 290.69L231.276 285.652C231.76 285.828 232.266 285.916 232.816 285.916C233.784 285.916 234.532 285.322 234.532 283.694V260.682H240.274ZM237.348 250.012C239.416 250.012 241.022 251.64 241.022 253.708C241.022 255.776 239.416 257.36 237.348 257.36C235.28 257.36 233.696 255.776 233.696 253.708C233.696 251.64 235.28 250.012 237.348 250.012ZM263.529 262.156L261.593 266.622C259.899 265.786 257.193 264.906 254.795 264.884C252.617 264.884 251.517 265.654 251.517 266.82C251.517 268.052 253.057 268.36 254.993 268.646L256.885 268.932C261.505 269.636 264.079 271.704 264.079 275.312C264.079 279.712 260.471 282.55 254.289 282.55C251.385 282.55 247.579 282 244.807 280.042L247.073 275.686C248.899 276.896 251.121 277.776 254.333 277.776C256.995 277.776 258.271 277.028 258.271 275.774C258.271 274.74 257.193 274.168 254.729 273.816L252.991 273.574C248.063 272.892 245.621 270.736 245.621 267.106C245.621 262.728 249.009 260.132 254.619 260.132C258.029 260.132 260.691 260.77 263.529 262.156ZM274.676 271.484H269.374V264.004H271.486C275.732 264.004 278.02 262.662 278.02 260.088C278.02 257.712 275.754 256.436 271.552 256.436C270.364 256.436 269.132 256.524 268.208 256.612L267.79 250.826C269.022 250.65 270.738 250.54 272.234 250.54C279.912 250.54 284.356 254.082 284.356 259.648C284.356 264.73 280.968 267.986 274.852 268.954L274.676 271.484ZM272.036 274.168C274.258 274.168 276.194 276.082 276.194 278.326C276.194 280.592 274.258 282.55 272.036 282.55C269.792 282.55 267.834 280.592 267.834 278.348C267.834 276.082 269.792 274.168 272.036 274.168Z" fill="url(#paint4_linear_2006_107)"/>
<defs>
<linearGradient id="paint0_linear_2006_107" x1="286" y1="62.3205" x2="-129.666" y2="284.517" gradientUnits="userSpaceOnUse">
<stop stop-color="#008033"/>
<stop offset="1"/>
</linearGradient>
<linearGradient id="paint1_linear_2006_107" x1="286" y1="102.32" x2="-129.666" y2="324.517" gradientUnits="userSpaceOnUse">
<stop stop-color="#008033"/>
<stop offset="1"/>
</linearGradient>
<linearGradient id="paint2_linear_2006_107" x1="286" y1="142.32" x2="-129.666" y2="364.517" gradientUnits="userSpaceOnUse">
<stop stop-color="#008033"/>
<stop offset="1"/>
</linearGradient>
<linearGradient id="paint3_linear_2006_107" x1="286" y1="182.32" x2="-129.666" y2="404.517" gradientUnits="userSpaceOnUse">
<stop stop-color="#008033"/>
<stop offset="1"/>
</linearGradient>
<linearGradient id="paint4_linear_2006_107" x1="286" y1="222.32" x2="-129.666" y2="444.517" gradientUnits="userSpaceOnUse">
<stop stop-color="#008033"/>
<stop offset="1"/>
</linearGradient>
<clipPath id="clip0_2006_107">
<rect width="102.117" height="102.117" fill="white" transform="translate(235.634 0.00878906) rotate(9.6147)"/>
</clipPath>
</defs>
</svg>
