<svg width="55" height="55" viewBox="0 0 55 55" fill="none" xmlns="http://www.w3.org/2000/svg">
<circle cx="27.5" cy="27.5" r="27.5" fill="#10271E"/>
<g clip-path="url(#clip0_78_407)">
<path fill-rule="evenodd" clip-rule="evenodd" d="M27.9999 16.6665C29.2112 16.6665 30.4536 16.6977 31.6578 16.7487L33.0801 16.8167L34.4415 16.8974L35.7165 16.9838L36.881 17.0745C38.1449 17.1707 39.3344 17.7098 40.2399 18.5969C41.1453 19.4839 41.7087 20.6621 41.8308 21.9238L41.8875 22.5258L41.9938 23.815C42.0929 25.1509 42.1666 26.6073 42.1666 27.9998C42.1666 29.3924 42.0929 30.8488 41.9938 32.1847L41.8875 33.4738L41.8308 34.0759C41.7087 35.3378 41.1451 36.5161 40.2393 37.4032C39.3336 38.2903 38.1438 38.8293 36.8796 38.9252L35.7179 39.0144L34.4429 39.1023L33.0801 39.183L31.6578 39.251C30.4392 39.3038 29.2196 39.3312 27.9999 39.3332C26.7802 39.3312 25.5607 39.3038 24.3421 39.251L22.9198 39.183L21.5583 39.1023L20.2833 39.0144L19.1188 38.9252C17.8549 38.829 16.6655 38.2899 15.76 37.4028C14.8545 36.5157 14.2911 35.3376 14.169 34.0759L14.1123 33.4738L14.0061 32.1847C13.8982 30.7923 13.8405 29.3964 13.8333 27.9998C13.8333 26.6073 13.9069 25.1509 14.0061 23.815L14.1123 22.5258L14.169 21.9238C14.2911 20.6623 14.8543 19.4843 15.7594 18.5973C16.6646 17.7102 17.8537 17.171 19.1174 17.0745L20.2805 16.9838L21.5555 16.8974L22.9183 16.8167L24.3407 16.7487C25.5597 16.6959 26.7797 16.6685 27.9999 16.6665ZM25.1666 24.5644V31.4353C25.1666 32.0898 25.8749 32.4978 26.4416 32.1719L32.3916 28.7365C32.5211 28.662 32.6286 28.5546 32.7034 28.4253C32.7782 28.296 32.8175 28.1492 32.8175 27.9998C32.8175 27.8504 32.7782 27.7037 32.7034 27.5744C32.6286 27.445 32.5211 27.3377 32.3916 27.2632L26.4416 23.8292C26.3123 23.7545 26.1657 23.7153 26.0164 23.7153C25.8672 23.7153 25.7206 23.7546 25.5913 23.8293C25.4621 23.904 25.3548 24.0114 25.2803 24.1406C25.2057 24.2699 25.1665 24.4166 25.1666 24.5658V24.5644Z" fill="#12B669"/>
</g>
<defs>
<clipPath id="clip0_78_407">
<rect width="34" height="34" fill="white" transform="translate(11 11)"/>
</clipPath>
</defs>
</svg>
